<?xml version="1.0" encoding="UTF-8" standalone="no"?>
<!DOCTYPE svg PUBLIC "-//W3C//DTD SVG 1.1//EN"
 "http://www.w3.org/Graphics/SVG/1.1/DTD/svg11.dtd">
<!-- Generated by graphviz version 14.1.3 (20260303.0454)
 -->
<!-- Title: FNO Pages: 1 -->
<svg width="1136pt" height="136pt"
 viewBox="0.00 0.00 1136.00 136.00" xmlns="http://www.w3.org/2000/svg" xmlns:xlink="http://www.w3.org/1999/xlink">
<g id="graph0" class="graph" transform="scale(1 1) rotate(0) translate(4 132)">
<title>FNO</title>
<g id="clust1" class="cluster">
<title>cluster_fourier</title>
<path fill="#1a0533" stroke="#6d28d9" stroke-width="1.5" stroke-dasharray="5,2" d="M284.25,-46C284.25,-46 617,-46 617,-46 623,-46 629,-52 629,-58 629,-58 629,-108 629,-108 629,-114 623,-120 617,-120 617,-120 284.25,-120 284.25,-120 278.25,-120 272.25,-114 272.25,-108 272.25,-108 272.25,-58 272.25,-58 272.25,-52 278.25,-46 284.25,-46"/>
<text xml:space="preserve" text-anchor="middle" x="450.62" y="-105.55" font-family="Arial" font-size="11.00" fill="#c4b5fd">Fourier Layer &#160;x L</text>
</g>
<!-- input -->
<g id="node1" class="node">
<title>input</title>
<path fill="#92400e" stroke="black" stroke-width="0" d="M81.25,-56C81.25,-56 12,-56 12,-56 6,-56 0,-50 0,-44 0,-44 0,-32 0,-32 0,-26 6,-20 12,-20 12,-20 81.25,-20 81.25,-20 87.25,-20 93.25,-26 93.25,-32 93.25,-32 93.25,-44 93.25,-44 93.25,-50 87.25,-56 81.25,-56"/>
<text xml:space="preserve" text-anchor="middle" x="46.62" y="-41.05" font-family="Arial" font-size="11.00" fill="#fbbf24">Input u(x)</text>
<text xml:space="preserve" text-anchor="middle" x="46.62" y="-27.55" font-family="Arial" font-size="11.00" fill="#fbbf24">Parameter Field</text>
</g>
<!-- lift -->
<g id="node2" class="node">
<title>lift</title>
<path fill="#1e3a5f" stroke="black" stroke-width="0" d="M217.25,-56C217.25,-56 159.25,-56 159.25,-56 153.25,-56 147.25,-50 147.25,-44 147.25,-44 147.25,-32 147.25,-32 147.25,-26 153.25,-20 159.25,-20 159.25,-20 217.25,-20 217.25,-20 223.25,-20 229.25,-26 229.25,-32 229.25,-32 229.25,-44 229.25,-44 229.25,-50 223.25,-56 217.25,-56"/>
<text xml:space="preserve" text-anchor="middle" x="188.25" y="-41.05" font-family="Arial" font-size="11.00" fill="#60a5fa">Lift P</text>
<text xml:space="preserve" text-anchor="middle" x="188.25" y="-27.55" font-family="Arial" font-size="11.00" fill="#60a5fa">Project to d_v</text>
</g>
<!-- input&#45;&gt;lift -->
<g id="edge3" class="edge">
<title>input&#45;&gt;lift</title>
<path fill="none" stroke="#4a5568" d="M92.96,-38C106.64,-38 121.77,-38 135.82,-38"/>
<polygon fill="#4a5568" stroke="#4a5568" points="135.8,-41.5 145.8,-38 135.8,-34.5 135.8,-41.5"/>
<text xml:space="preserve" text-anchor="middle" x="120.25" y="-39.95" font-family="Arial" font-size="9.00" fill="#8090b0">d_in</text>
</g>
<!-- fft -->
<g id="node3" class="node">
<title>fft</title>
<path fill="#312e81" stroke="black" stroke-width="0" d="M322.25,-90C322.25,-90 292.25,-90 292.25,-90 286.25,-90 280.25,-84 280.25,-78 280.25,-78 280.25,-66 280.25,-66 280.25,-60 286.25,-54 292.25,-54 292.25,-54 322.25,-54 322.25,-54 328.25,-54 334.25,-60 334.25,-66 334.25,-66 334.25,-78 334.25,-78 334.25,-84 328.25,-90 322.25,-90"/>
<text xml:space="preserve" text-anchor="middle" x="307.25" y="-68.3" font-family="Arial" font-size="11.00" fill="#a78bfa">FFT</text>
</g>
<!-- lift&#45;&gt;fft -->
<g id="edge4" class="edge">
<title>lift&#45;&gt;fft</title>
<path fill="none" stroke="#4a5568" d="M229.19,-49.61C242.29,-53.41 256.79,-57.63 269.64,-61.36"/>
<polygon fill="#4a5568" stroke="#4a5568" points="268.4,-64.64 278.98,-64.07 270.35,-57.92 268.4,-64.64"/>
<text xml:space="preserve" text-anchor="middle" x="254.75" y="-61" font-family="Arial" font-size="9.00" fill="#8090b0">d_v</text>
</g>
<!-- skip -->
<g id="node6" class="node">
<title>skip</title>
<path fill="#1e3a5f" stroke="black" stroke-width="0" d="M620.75,-36C620.75,-36 567.25,-36 567.25,-36 561.25,-36 555.25,-30 555.25,-24 555.25,-24 555.25,-12 555.25,-12 555.25,-6 561.25,0 567.25,0 567.25,0 620.75,0 620.75,0 626.75,0 632.75,-6 632.75,-12 632.75,-12 632.75,-24 632.75,-24 632.75,-30 626.75,-36 620.75,-36"/>
<text xml:space="preserve" text-anchor="middle" x="594" y="-21.05" font-family="Arial" font-size="11.00" fill="#60a5fa">W . x</text>
<text xml:space="preserve" text-anchor="middle" x="594" y="-7.55" font-family="Arial" font-size="11.00" fill="#60a5fa">Skip (Linear)</text>
</g>
<!-- lift&#45;&gt;skip -->
<g id="edge5" class="edge">
<title>lift&#45;&gt;skip</title>
<path fill="none" stroke="#4a5568" stroke-dasharray="5,2" d="M229.07,-36.03C303.49,-32.34 463.45,-24.42 544.22,-20.42"/>
<polygon fill="#4a5568" stroke="#4a5568" points="544.21,-23.92 554.03,-19.93 543.87,-16.93 544.21,-23.92"/>
<text xml:space="preserve" text-anchor="middle" x="380.75" y="-31.79" font-family="Arial" font-size="9.00" fill="#8090b0">bypass</text>
</g>
<!-- spectral -->
<g id="node4" class="node">
<title>spectral</title>
<path fill="#4c1d95" stroke="black" stroke-width="0" d="M506.25,-90C506.25,-90 439.25,-90 439.25,-90 433.25,-90 427.25,-84 427.25,-78 427.25,-78 427.25,-66 427.25,-66 427.25,-60 433.25,-54 439.25,-54 439.25,-54 506.25,-54 506.25,-54 512.25,-54 518.25,-60 518.25,-66 518.25,-66 518.25,-78 518.25,-78 518.25,-84 512.25,-90 506.25,-90"/>
<text xml:space="preserve" text-anchor="middle" x="472.75" y="-75.05" font-family="Arial" font-size="11.00" fill="#c4b5fd">R Multiply</text>
<text xml:space="preserve" text-anchor="middle" x="472.75" y="-61.55" font-family="Arial" font-size="11.00" fill="#c4b5fd">Filter High Freq</text>
</g>
<!-- fft&#45;&gt;spectral -->
<g id="edge1" class="edge">
<title>fft&#45;&gt;spectral</title>
<path fill="none" stroke="#4a5568" d="M334.16,-72C356.16,-72 388.5,-72 416.29,-72"/>
<polygon fill="#4a5568" stroke="#4a5568" points="415.97,-75.5 425.97,-72 415.97,-68.5 415.97,-75.5"/>
<text xml:space="preserve" text-anchor="middle" x="380.75" y="-73.95" font-family="Arial" font-size="9.00" fill="#8090b0">k_max modes</text>
</g>
<!-- ifft -->
<g id="node5" class="node">
<title>ifft</title>
<path fill="#312e81" stroke="black" stroke-width="0" d="M609,-90C609,-90 579,-90 579,-90 573,-90 567,-84 567,-78 567,-78 567,-66 567,-66 567,-60 573,-54 579,-54 579,-54 609,-54 609,-54 615,-54 621,-60 621,-66 621,-66 621,-78 621,-78 621,-84 615,-90 609,-90"/>
<text xml:space="preserve" text-anchor="middle" x="594" y="-68.3" font-family="Arial" font-size="11.00" fill="#a78bfa">IFFT</text>
</g>
<!-- spectral&#45;&gt;ifft -->
<g id="edge2" class="edge">
<title>spectral&#45;&gt;ifft</title>
<path fill="none" stroke="#4a5568" d="M518.15,-72C530.57,-72 543.93,-72 555.88,-72"/>
<polygon fill="#4a5568" stroke="#4a5568" points="555.75,-75.5 565.75,-72 555.75,-68.5 555.75,-75.5"/>
</g>
<!-- add -->
<g id="node7" class="node">
<title>add</title>
<ellipse fill="#1f2937" stroke="black" stroke-width="0" cx="719.35" cy="-45" rx="25.1" ry="25.1"/>
<text xml:space="preserve" text-anchor="middle" x="719.35" y="-48.05" font-family="Arial" font-size="11.00" fill="#c0c8e0">+</text>
<text xml:space="preserve" text-anchor="middle" x="719.35" y="-34.55" font-family="Arial" font-size="11.00" fill="#c0c8e0">Add</text>
</g>
<!-- ifft&#45;&gt;add -->
<g id="edge6" class="edge">
<title>ifft&#45;&gt;add</title>
<path fill="none" stroke="#4a5568" d="M620.86,-66.34C639.17,-62.33 663.92,-56.92 683.9,-52.54"/>
<polygon fill="#4a5568" stroke="#4a5568" points="684.53,-55.99 693.55,-50.43 683.03,-49.15 684.53,-55.99"/>
<text xml:space="preserve" text-anchor="middle" x="663.5" y="-61.26" font-family="Arial" font-size="9.00" fill="#8090b0">global</text>
</g>
<!-- skip&#45;&gt;add -->
<g id="edge7" class="edge">
<title>skip&#45;&gt;add</title>
<path fill="none" stroke="#4a5568" d="M632.68,-26.25C648.99,-29.82 667.94,-33.97 683.87,-37.45"/>
<polygon fill="#4a5568" stroke="#4a5568" points="682.86,-40.81 693.38,-39.53 684.36,-33.98 682.86,-40.81"/>
<text xml:space="preserve" text-anchor="middle" x="663.5" y="-37.45" font-family="Arial" font-size="9.00" fill="#8090b0">local</text>
</g>
<!-- sigma -->
<g id="node8" class="node">
<title>sigma</title>
<path fill="#1e3a5f" stroke="black" stroke-width="0" d="M831.95,-63C831.95,-63 793.45,-63 793.45,-63 787.45,-63 781.45,-57 781.45,-51 781.45,-51 781.45,-39 781.45,-39 781.45,-33 787.45,-27 793.45,-27 793.45,-27 831.95,-27 831.95,-27 837.95,-27 843.95,-33 843.95,-39 843.95,-39 843.95,-51 843.95,-51 843.95,-57 837.95,-63 831.95,-63"/>
<text xml:space="preserve" text-anchor="middle" x="812.7" y="-48.05" font-family="Arial" font-size="11.00" fill="#60a5fa">GeLU</text>
<text xml:space="preserve" text-anchor="middle" x="812.7" y="-34.55" font-family="Arial" font-size="11.00" fill="#60a5fa">Activation</text>
</g>
<!-- add&#45;&gt;sigma -->
<g id="edge8" class="edge">
<title>add&#45;&gt;sigma</title>
<path fill="none" stroke="#4a5568" d="M744.35,-45C752.29,-45 761.37,-45 770.23,-45"/>
<polygon fill="#4a5568" stroke="#4a5568" points="770.14,-48.5 780.14,-45 770.14,-41.5 770.14,-48.5"/>
</g>
<!-- project -->
<g id="node9" class="node">
<title>project</title>
<path fill="#1e3a5f" stroke="black" stroke-width="0" d="M975.45,-63C975.45,-63 925.7,-63 925.7,-63 919.7,-63 913.7,-57 913.7,-51 913.7,-51 913.7,-39 913.7,-39 913.7,-33 919.7,-27 925.7,-27 925.7,-27 975.45,-27 975.45,-27 981.45,-27 987.45,-33 987.45,-39 987.45,-39 987.45,-51 987.45,-51 987.45,-57 981.45,-63 975.45,-63"/>
<text xml:space="preserve" text-anchor="middle" x="950.58" y="-48.05" font-family="Arial" font-size="11.00" fill="#60a5fa">Project Q</text>
<text xml:space="preserve" text-anchor="middle" x="950.58" y="-34.55" font-family="Arial" font-size="11.00" fill="#60a5fa">Reduce dim</text>
</g>
<!-- sigma&#45;&gt;project -->
<g id="edge9" class="edge">
<title>sigma&#45;&gt;project</title>
<path fill="none" stroke="#4a5568" d="M843.86,-45C861.03,-45 882.93,-45 902.34,-45"/>
<polygon fill="#4a5568" stroke="#4a5568" points="902.21,-48.5 912.21,-45 902.21,-41.5 902.21,-48.5"/>
<text xml:space="preserve" text-anchor="middle" x="878.83" y="-46.95" font-family="Arial" font-size="9.00" fill="#8090b0">repeat L</text>
</g>
<!-- output -->
<g id="node10" class="node">
<title>output</title>
<path fill="#92400e" stroke="black" stroke-width="0" d="M1115.95,-63C1115.95,-63 1058.7,-63 1058.7,-63 1052.7,-63 1046.7,-57 1046.7,-51 1046.7,-51 1046.7,-39 1046.7,-39 1046.7,-33 1052.7,-27 1058.7,-27 1058.7,-27 1115.95,-27 1115.95,-27 1121.95,-27 1127.95,-33 1127.95,-39 1127.95,-39 1127.95,-51 1127.95,-51 1127.95,-57 1121.95,-63 1115.95,-63"/>
<text xml:space="preserve" text-anchor="middle" x="1087.33" y="-48.05" font-family="Arial" font-size="11.00" fill="#fbbf24">Output s(x)</text>
<text xml:space="preserve" text-anchor="middle" x="1087.33" y="-34.55" font-family="Arial" font-size="11.00" fill="#fbbf24">Solution Field</text>
</g>
<!-- project&#45;&gt;output -->
<g id="edge10" class="edge">
<title>project&#45;&gt;output</title>
<path fill="none" stroke="#4a5568" d="M987.34,-45C1002.14,-45 1019.59,-45 1035.67,-45"/>
<polygon fill="#4a5568" stroke="#4a5568" points="1035.57,-48.5 1045.57,-45 1035.57,-41.5 1035.57,-48.5"/>
<text xml:space="preserve" text-anchor="middle" x="1017.08" y="-46.95" font-family="Arial" font-size="9.00" fill="#8090b0">d_out</text>
</g>
</g>
</svg>
