<?xml version="1.0" encoding="UTF-8" standalone="no"?>
<!DOCTYPE svg PUBLIC "-//W3C//DTD SVG 1.1//EN"
 "http://www.w3.org/Graphics/SVG/1.1/DTD/svg11.dtd">
<!-- Generated by graphviz version 14.1.3 (20260303.0454)
 -->
<!-- Title: GIC Pages: 1 -->
<svg width="654pt" height="235pt"
 viewBox="0.00 0.00 654.00 235.00" xmlns="http://www.w3.org/2000/svg" xmlns:xlink="http://www.w3.org/1999/xlink">
<g id="graph0" class="graph" transform="scale(1 1) rotate(0) translate(4 230.5)">
<title>GIC</title>
<g id="clust1" class="cluster">
<title>cluster_bridge</title>
<path fill="#1a0533" stroke="#6d28d9" stroke-width="1.5" stroke-dasharray="5,2" d="M345.38,-52.25C345.38,-52.25 459.62,-52.25 459.62,-52.25 465.62,-52.25 471.62,-58.25 471.62,-64.25 471.62,-64.25 471.62,-191.25 471.62,-191.25 471.62,-197.25 465.62,-203.25 459.62,-203.25 459.62,-203.25 345.38,-203.25 345.38,-203.25 339.38,-203.25 333.38,-197.25 333.38,-191.25 333.38,-191.25 333.38,-64.25 333.38,-64.25 333.38,-58.25 339.38,-52.25 345.38,-52.25"/>
<text xml:space="preserve" text-anchor="middle" x="402.5" y="-189.75" font-family="Arial" font-size="10.00" fill="#c4b5fd">Continuum&#45;Gaussian Bridge</text>
</g>
<!-- video -->
<g id="node1" class="node">
<title>video</title>
<path fill="#92400e" stroke="black" stroke-width="0" d="M77.12,-150.25C77.12,-150.25 14.62,-150.25 14.62,-150.25 8.62,-150.25 2.62,-144.25 2.62,-138.25 2.62,-138.25 2.62,-126.25 2.62,-126.25 2.62,-120.25 8.62,-114.25 14.62,-114.25 14.62,-114.25 77.12,-114.25 77.12,-114.25 83.12,-114.25 89.12,-120.25 89.12,-126.25 89.12,-126.25 89.12,-138.25 89.12,-138.25 89.12,-144.25 83.12,-150.25 77.12,-150.25"/>
<text xml:space="preserve" text-anchor="middle" x="45.88" y="-135.3" font-family="Arial" font-size="11.00" fill="#fbbf24">Multi&#45;View</text>
<text xml:space="preserve" text-anchor="middle" x="45.88" y="-121.8" font-family="Arial" font-size="11.00" fill="#fbbf24">Video (RGBD)</text>
</g>
<!-- gs_recon -->
<g id="node2" class="node">
<title>gs_recon</title>
<path fill="#1e3a5f" stroke="black" stroke-width="0" d="M248.75,-175.5C248.75,-175.5 184.75,-175.5 184.75,-175.5 178.75,-175.5 172.75,-169.5 172.75,-163.5 172.75,-163.5 172.75,-139 172.75,-139 172.75,-133 178.75,-127 184.75,-127 184.75,-127 248.75,-127 248.75,-127 254.75,-127 260.75,-133 260.75,-139 260.75,-139 260.75,-163.5 260.75,-163.5 260.75,-169.5 254.75,-175.5 248.75,-175.5"/>
<text xml:space="preserve" text-anchor="middle" x="216.75" y="-161.05" font-family="Arial" font-size="11.00" fill="#60a5fa">3DGS</text>
<text xml:space="preserve" text-anchor="middle" x="216.75" y="-147.55" font-family="Arial" font-size="11.00" fill="#60a5fa">Reconstruction</text>
<text xml:space="preserve" text-anchor="middle" x="216.75" y="-134.05" font-family="Arial" font-size="11.00" fill="#60a5fa">(t=0)</text>
</g>
<!-- video&#45;&gt;gs_recon -->
<g id="edge1" class="edge">
<title>video&#45;&gt;gs_recon</title>
<path fill="none" stroke="#4a5568" d="M89.09,-130.26C109.09,-129.97 133.26,-130.58 154.75,-133.75 157.09,-134.1 159.47,-134.51 161.86,-134.97"/>
<polygon fill="#4a5568" stroke="#4a5568" points="161.07,-138.38 171.6,-137.14 162.59,-131.55 161.07,-138.38"/>
<text xml:space="preserve" text-anchor="middle" x="132.25" y="-135.7" font-family="Arial" font-size="9.00" fill="#8090b0">train 3DGS</text>
</g>
<!-- loss -->
<g id="node7" class="node">
<title>loss</title>
<path fill="#92400e" stroke="black" stroke-width="0" d="M238.62,-48.5C238.62,-48.5 194.88,-48.5 194.88,-48.5 188.88,-48.5 182.88,-42.5 182.88,-36.5 182.88,-36.5 182.88,-12 182.88,-12 182.88,-6 188.88,0 194.88,0 194.88,0 238.62,0 238.62,0 244.62,0 250.62,-6 250.62,-12 250.62,-12 250.62,-36.5 250.62,-36.5 250.62,-42.5 244.62,-48.5 238.62,-48.5"/>
<text xml:space="preserve" text-anchor="middle" x="216.75" y="-34.05" font-family="Arial" font-size="11.00" fill="#fbbf24">Loss</text>
<text xml:space="preserve" text-anchor="middle" x="216.75" y="-20.55" font-family="Arial" font-size="11.00" fill="#fbbf24">L1 + SSIM</text>
<text xml:space="preserve" text-anchor="middle" x="216.75" y="-7.05" font-family="Arial" font-size="11.00" fill="#fbbf24">+ Depth</text>
</g>
<!-- video&#45;&gt;loss -->
<g id="edge7" class="edge">
<title>video&#45;&gt;loss</title>
<path fill="none" stroke="#6b7280" stroke-dasharray="5,2" d="M88.82,-150.21C110.66,-156.54 136.54,-158.89 154.75,-144.25 183.82,-120.87 153.84,-94.41 172.75,-62.25 173.85,-60.38 175.07,-58.56 176.39,-56.78"/>
<polygon fill="#6b7280" stroke="#6b7280" points="178.79,-59.36 182.64,-49.49 173.47,-54.8 178.79,-59.36"/>
<text xml:space="preserve" text-anchor="middle" x="132.25" y="-167.6" font-family="Arial" font-size="9.00" fill="#8090b0">ground</text>
<text xml:space="preserve" text-anchor="middle" x="132.25" y="-157.1" font-family="Arial" font-size="9.00" fill="#8090b0">truth</text>
</g>
<!-- gs_to_mpm -->
<g id="node3" class="node">
<title>gs_to_mpm</title>
<path fill="#4c1d95" stroke="black" stroke-width="0" d="M425.75,-175.5C425.75,-175.5 378.25,-175.5 378.25,-175.5 372.25,-175.5 366.25,-169.5 366.25,-163.5 366.25,-163.5 366.25,-139 366.25,-139 366.25,-133 372.25,-127 378.25,-127 378.25,-127 425.75,-127 425.75,-127 431.75,-127 437.75,-133 437.75,-139 437.75,-139 437.75,-163.5 437.75,-163.5 437.75,-169.5 431.75,-175.5 425.75,-175.5"/>
<text xml:space="preserve" text-anchor="middle" x="402" y="-161.05" font-family="Arial" font-size="11.00" fill="#c4b5fd">Gaussian</text>
<text xml:space="preserve" text-anchor="middle" x="402" y="-147.55" font-family="Arial" font-size="11.00" fill="#c4b5fd"> &#160;to MPM</text>
<text xml:space="preserve" text-anchor="middle" x="402" y="-134.05" font-family="Arial" font-size="11.00" fill="#c4b5fd">mu_k = x_k</text>
</g>
<!-- gs_recon&#45;&gt;gs_to_mpm -->
<g id="edge2" class="edge">
<title>gs_recon&#45;&gt;gs_to_mpm</title>
<path fill="none" stroke="#4a5568" d="M260.71,-151.25C288.98,-151.25 325.95,-151.25 354.84,-151.25"/>
<polygon fill="#4a5568" stroke="#4a5568" points="354.76,-154.75 364.76,-151.25 354.76,-147.75 354.76,-154.75"/>
<text xml:space="preserve" text-anchor="middle" x="300.5" y="-163.7" font-family="Arial" font-size="9.00" fill="#8090b0">Gaussians</text>
<text xml:space="preserve" text-anchor="middle" x="300.5" y="-153.2" font-family="Arial" font-size="9.00" fill="#8090b0">mu, S, c, a</text>
</g>
<!-- diff_mpm -->
<g id="node5" class="node">
<title>diff_mpm</title>
<path fill="#065f46" stroke="black" stroke-width="0" d="M633.75,-108.5C633.75,-108.5 574.25,-108.5 574.25,-108.5 568.25,-108.5 562.25,-102.5 562.25,-96.5 562.25,-96.5 562.25,-72 562.25,-72 562.25,-66 568.25,-60 574.25,-60 574.25,-60 633.75,-60 633.75,-60 639.75,-60 645.75,-66 645.75,-72 645.75,-72 645.75,-96.5 645.75,-96.5 645.75,-102.5 639.75,-108.5 633.75,-108.5"/>
<text xml:space="preserve" text-anchor="middle" x="604" y="-94.05" font-family="Arial" font-size="11.00" fill="#34d399">Differentiable</text>
<text xml:space="preserve" text-anchor="middle" x="604" y="-80.55" font-family="Arial" font-size="11.00" fill="#34d399">MPM</text>
<text xml:space="preserve" text-anchor="middle" x="604" y="-67.05" font-family="Arial" font-size="11.00" fill="#34d399">(P2G &#45;&gt; G2P)</text>
</g>
<!-- gs_to_mpm&#45;&gt;diff_mpm -->
<g id="edge3" class="edge">
<title>gs_to_mpm&#45;&gt;diff_mpm</title>
<path fill="none" stroke="#4a5568" d="M437.38,-139.73C468.86,-129.19 515.87,-113.44 551.77,-101.41"/>
<polygon fill="#4a5568" stroke="#4a5568" points="552.72,-104.78 561.09,-98.29 550.5,-98.15 552.72,-104.78"/>
<text xml:space="preserve" text-anchor="middle" x="513.5" y="-136.2" font-family="Arial" font-size="9.00" fill="#8090b0">particles</text>
<text xml:space="preserve" text-anchor="middle" x="513.5" y="-125.7" font-family="Arial" font-size="9.00" fill="#8090b0">+ learnable E,v</text>
</g>
<!-- mpm_to_gs -->
<g id="node4" class="node">
<title>mpm_to_gs</title>
<path fill="#4c1d95" stroke="black" stroke-width="0" d="M425,-108.5C425,-108.5 379,-108.5 379,-108.5 373,-108.5 367,-102.5 367,-96.5 367,-96.5 367,-72 367,-72 367,-66 373,-60 379,-60 379,-60 425,-60 425,-60 431,-60 437,-66 437,-72 437,-72 437,-96.5 437,-96.5 437,-102.5 431,-108.5 425,-108.5"/>
<text xml:space="preserve" text-anchor="middle" x="402" y="-94.05" font-family="Arial" font-size="11.00" fill="#c4b5fd">MPM to</text>
<text xml:space="preserve" text-anchor="middle" x="402" y="-80.55" font-family="Arial" font-size="11.00" fill="#c4b5fd">Gaussian</text>
<text xml:space="preserve" text-anchor="middle" x="402" y="-67.05" font-family="Arial" font-size="11.00" fill="#c4b5fd">S&#39;=F.S.F^T</text>
</g>
<!-- render -->
<g id="node6" class="node">
<title>render</title>
<path fill="#1e3a5f" stroke="black" stroke-width="0" d="M77.5,-92.5C77.5,-92.5 14.25,-92.5 14.25,-92.5 8.25,-92.5 2.25,-86.5 2.25,-80.5 2.25,-80.5 2.25,-56 2.25,-56 2.25,-50 8.25,-44 14.25,-44 14.25,-44 77.5,-44 77.5,-44 83.5,-44 89.5,-50 89.5,-56 89.5,-56 89.5,-80.5 89.5,-80.5 89.5,-86.5 83.5,-92.5 77.5,-92.5"/>
<text xml:space="preserve" text-anchor="middle" x="45.88" y="-78.05" font-family="Arial" font-size="11.00" fill="#60a5fa">3DGS</text>
<text xml:space="preserve" text-anchor="middle" x="45.88" y="-64.55" font-family="Arial" font-size="11.00" fill="#60a5fa">Rendering</text>
<text xml:space="preserve" text-anchor="middle" x="45.88" y="-51.05" font-family="Arial" font-size="11.00" fill="#60a5fa">(Differentiable)</text>
</g>
<!-- mpm_to_gs&#45;&gt;render -->
<g id="edge5" class="edge">
<title>mpm_to_gs&#45;&gt;render</title>
<path fill="none" stroke="#4a5568" d="M367.03,-82.72C305.35,-79.93 174.49,-74.02 100.59,-70.68"/>
<polygon fill="#4a5568" stroke="#4a5568" points="100.9,-67.19 90.75,-70.23 100.58,-74.18 100.9,-67.19"/>
<text xml:space="preserve" text-anchor="middle" x="216.75" y="-90.29" font-family="Arial" font-size="9.00" fill="#8090b0">deformed</text>
<text xml:space="preserve" text-anchor="middle" x="216.75" y="-79.79" font-family="Arial" font-size="9.00" fill="#8090b0">Gaussians</text>
</g>
<!-- diff_mpm&#45;&gt;mpm_to_gs -->
<g id="edge4" class="edge">
<title>diff_mpm&#45;&gt;mpm_to_gs</title>
<path fill="none" stroke="#4a5568" d="M562.34,-84.25C529.17,-84.25 482.35,-84.25 448.04,-84.25"/>
<polygon fill="#4a5568" stroke="#4a5568" points="448.44,-80.75 438.44,-84.25 448.44,-87.75 448.44,-80.75"/>
<text xml:space="preserve" text-anchor="middle" x="513.5" y="-86.2" font-family="Arial" font-size="9.00" fill="#8090b0">new x, F</text>
</g>
<!-- render&#45;&gt;loss -->
<g id="edge6" class="edge">
<title>render&#45;&gt;loss</title>
<path fill="none" stroke="#4a5568" d="M89.39,-55.01C96.18,-53.01 103.14,-51.03 109.75,-49.25 130.11,-43.78 152.84,-38.33 172.01,-33.92"/>
<polygon fill="#4a5568" stroke="#4a5568" points="172.7,-37.36 181.67,-31.73 171.14,-30.53 172.7,-37.36"/>
<text xml:space="preserve" text-anchor="middle" x="132.25" y="-61.7" font-family="Arial" font-size="9.00" fill="#8090b0">predicted</text>
<text xml:space="preserve" text-anchor="middle" x="132.25" y="-51.2" font-family="Arial" font-size="9.00" fill="#8090b0">image</text>
</g>
<!-- optimize -->
<g id="node8" class="node">
<title>optimize</title>
<path fill="#4c1d95" stroke="black" stroke-width="0" d="M426.88,-42.25C426.88,-42.25 377.12,-42.25 377.12,-42.25 371.12,-42.25 365.12,-36.25 365.12,-30.25 365.12,-30.25 365.12,-18.25 365.12,-18.25 365.12,-12.25 371.12,-6.25 377.12,-6.25 377.12,-6.25 426.88,-6.25 426.88,-6.25 432.88,-6.25 438.88,-12.25 438.88,-18.25 438.88,-18.25 438.88,-30.25 438.88,-30.25 438.88,-36.25 432.88,-42.25 426.88,-42.25"/>
<text xml:space="preserve" text-anchor="middle" x="402" y="-27.3" font-family="Arial" font-size="11.00" fill="#c4b5fd">Optimize</text>
<text xml:space="preserve" text-anchor="middle" x="402" y="-13.8" font-family="Arial" font-size="11.00" fill="#c4b5fd">E, v params</text>
</g>
<!-- loss&#45;&gt;optimize -->
<g id="edge8" class="edge">
<title>loss&#45;&gt;optimize</title>
<path fill="none" stroke="#ef4444" d="M250.51,-24.25C279.3,-24.25 321.54,-24.25 353.94,-24.25"/>
<polygon fill="#ef4444" stroke="#ef4444" points="353.88,-27.75 363.88,-24.25 353.88,-20.75 353.88,-27.75"/>
<text xml:space="preserve" text-anchor="middle" x="300.5" y="-26.2" font-family="Arial" font-size="9.00" fill="#ef4444">backprop</text>
</g>
<!-- optimize&#45;&gt;diff_mpm -->
<g id="edge9" class="edge">
<title>optimize&#45;&gt;diff_mpm</title>
<path fill="none" stroke="#ef4444" stroke-dasharray="5,2" d="M438.76,-34.98C470.22,-44.42 516.4,-58.27 551.78,-68.88"/>
<polygon fill="#ef4444" stroke="#ef4444" points="550.36,-72.11 560.94,-71.63 552.37,-65.41 550.36,-72.11"/>
<text xml:space="preserve" text-anchor="middle" x="513.5" y="-68.47" font-family="Arial" font-size="9.00" fill="#ef4444">update</text>
</g>
<!-- evolution -->
<g id="node9" class="node">
<title>evolution</title>
<polygon fill="#1f2937" stroke="black" stroke-width="0" points="85.75,-226.5 0,-226.5 0,-178 91.75,-178 91.75,-220.5 85.75,-226.5"/>
<polyline fill="none" stroke="black" stroke-width="0" points="85.75,-226.5 85.75,-220.5"/>
<polyline fill="none" stroke="black" stroke-width="0" points="91.75,-220.5 85.75,-220.5"/>
<text xml:space="preserve" text-anchor="middle" x="45.88" y="-212.05" font-family="Arial" font-size="11.00" fill="#6b7280">Evolution:</text>
<text xml:space="preserve" text-anchor="middle" x="45.88" y="-198.55" font-family="Arial" font-size="11.00" fill="#6b7280">NeRF &#45;&gt; 3DGS</text>
<text xml:space="preserve" text-anchor="middle" x="45.88" y="-185.05" font-family="Arial" font-size="11.00" fill="#6b7280">6000x faster</text>
</g>
<!-- evolution&#45;&gt;gs_recon -->
<g id="edge10" class="edge">
<title>evolution&#45;&gt;gs_recon</title>
<path fill="none" stroke="#4a5568" stroke-dasharray="1,5" d="M91.66,-200.61C111.44,-198.83 134.7,-195.28 154.75,-188.25 163.87,-185.05 173.09,-180.37 181.51,-175.4"/>
</g>
</g>
</svg>
