<?xml version="1.0" encoding="UTF-8" standalone="no"?>
<!DOCTYPE svg PUBLIC "-//W3C//DTD SVG 1.1//EN"
 "http://www.w3.org/Graphics/SVG/1.1/DTD/svg11.dtd">
<!-- Generated by graphviz version 14.1.3 (20260303.0454)
 -->
<!-- Title: GNS Pages: 1 -->
<svg width="1261pt" height="98pt"
 viewBox="0.00 0.00 1261.00 98.00" xmlns="http://www.w3.org/2000/svg" xmlns:xlink="http://www.w3.org/1999/xlink">
<g id="graph0" class="graph" transform="scale(1 1) rotate(0) translate(4 94)">
<title>GNS</title>
<g id="clust1" class="cluster">
<title>cluster_mp</title>
<path fill="#1a0533" stroke="#6d28d9" stroke-width="1.5" stroke-dasharray="5,2" d="M485.5,-8C485.5,-8 733,-8 733,-8 739,-8 745,-14 745,-20 745,-20 745,-70 745,-70 745,-76 739,-82 733,-82 733,-82 485.5,-82 485.5,-82 479.5,-82 473.5,-76 473.5,-70 473.5,-70 473.5,-20 473.5,-20 473.5,-14 479.5,-8 485.5,-8"/>
<text xml:space="preserve" text-anchor="middle" x="609.25" y="-67.55" font-family="Arial" font-size="11.00" fill="#c4b5fd">Message Passing &#160;x M</text>
</g>
<!-- particles -->
<g id="node1" class="node">
<title>particles</title>
<path fill="#92400e" stroke="black" stroke-width="0" d="M67,-52C67,-52 12,-52 12,-52 6,-52 0,-46 0,-40 0,-40 0,-28 0,-28 0,-22 6,-16 12,-16 12,-16 67,-16 67,-16 73,-16 79,-22 79,-28 79,-28 79,-40 79,-40 79,-46 73,-52 67,-52"/>
<text xml:space="preserve" text-anchor="middle" x="39.5" y="-37.05" font-family="Arial" font-size="11.00" fill="#fbbf24">Particles</text>
<text xml:space="preserve" text-anchor="middle" x="39.5" y="-23.55" font-family="Arial" font-size="11.00" fill="#fbbf24">pos, vel, type</text>
</g>
<!-- graph_build -->
<g id="node2" class="node">
<title>graph_build</title>
<path fill="#065f46" stroke="black" stroke-width="0" d="M238.25,-52C238.25,-52 180.25,-52 180.25,-52 174.25,-52 168.25,-46 168.25,-40 168.25,-40 168.25,-28 168.25,-28 168.25,-22 174.25,-16 180.25,-16 180.25,-16 238.25,-16 238.25,-16 244.25,-16 250.25,-22 250.25,-28 250.25,-28 250.25,-40 250.25,-40 250.25,-46 244.25,-52 238.25,-52"/>
<text xml:space="preserve" text-anchor="middle" x="209.25" y="-37.05" font-family="Arial" font-size="11.00" fill="#34d399">Build Radius</text>
<text xml:space="preserve" text-anchor="middle" x="209.25" y="-23.55" font-family="Arial" font-size="11.00" fill="#34d399">Graph (k&#45;NN)</text>
</g>
<!-- particles&#45;&gt;graph_build -->
<g id="edge2" class="edge">
<title>particles&#45;&gt;graph_build</title>
<path fill="none" stroke="#4a5568" d="M78.99,-34C102.22,-34 132.11,-34 157.29,-34"/>
<polygon fill="#4a5568" stroke="#4a5568" points="156.97,-37.5 166.97,-34 156.97,-30.5 156.97,-37.5"/>
<text xml:space="preserve" text-anchor="middle" x="123.62" y="-35.95" font-family="Arial" font-size="9.00" fill="#8090b0">r &lt; r_connect</text>
</g>
<!-- encoder -->
<g id="node3" class="node">
<title>encoder</title>
<path fill="#1e3a5f" stroke="black" stroke-width="0" d="M382.5,-52C382.5,-52 345.5,-52 345.5,-52 339.5,-52 333.5,-46 333.5,-40 333.5,-40 333.5,-28 333.5,-28 333.5,-22 339.5,-16 345.5,-16 345.5,-16 382.5,-16 382.5,-16 388.5,-16 394.5,-22 394.5,-28 394.5,-28 394.5,-40 394.5,-40 394.5,-46 388.5,-52 382.5,-52"/>
<text xml:space="preserve" text-anchor="middle" x="364" y="-37.05" font-family="Arial" font-size="11.00" fill="#60a5fa">Encoder</text>
<text xml:space="preserve" text-anchor="middle" x="364" y="-23.55" font-family="Arial" font-size="11.00" fill="#60a5fa">MLPs x 2</text>
</g>
<!-- graph_build&#45;&gt;encoder -->
<g id="edge3" class="edge">
<title>graph_build&#45;&gt;encoder</title>
<path fill="none" stroke="#4a5568" d="M249.98,-34C272.16,-34 299.75,-34 322.11,-34"/>
<polygon fill="#4a5568" stroke="#4a5568" points="322.09,-37.5 332.09,-34 322.09,-30.5 322.09,-37.5"/>
<text xml:space="preserve" text-anchor="middle" x="291.88" y="-46.45" font-family="Arial" font-size="9.00" fill="#8090b0">node+edge</text>
<text xml:space="preserve" text-anchor="middle" x="291.88" y="-35.95" font-family="Arial" font-size="9.00" fill="#8090b0">features</text>
</g>
<!-- edge_update -->
<g id="node4" class="node">
<title>edge_update</title>
<path fill="#4c1d95" stroke="black" stroke-width="0" d="M549.25,-52C549.25,-52 493.5,-52 493.5,-52 487.5,-52 481.5,-46 481.5,-40 481.5,-40 481.5,-28 481.5,-28 481.5,-22 487.5,-16 493.5,-16 493.5,-16 549.25,-16 549.25,-16 555.25,-16 561.25,-22 561.25,-28 561.25,-28 561.25,-40 561.25,-40 561.25,-46 555.25,-52 549.25,-52"/>
<text xml:space="preserve" text-anchor="middle" x="521.38" y="-37.05" font-family="Arial" font-size="11.00" fill="#c4b5fd">Edge Update</text>
<text xml:space="preserve" text-anchor="middle" x="521.38" y="-23.55" font-family="Arial" font-size="11.00" fill="#c4b5fd">phi_e MLP</text>
</g>
<!-- encoder&#45;&gt;edge_update -->
<g id="edge4" class="edge">
<title>encoder&#45;&gt;edge_update</title>
<path fill="none" stroke="#4a5568" d="M394.22,-34C415.65,-34 445.25,-34 470.4,-34"/>
<polygon fill="#4a5568" stroke="#4a5568" points="470.08,-37.5 480.08,-34 470.08,-30.5 470.08,-37.5"/>
<text xml:space="preserve" text-anchor="middle" x="438" y="-35.95" font-family="Arial" font-size="9.00" fill="#8090b0">embeddings</text>
</g>
<!-- node_agg -->
<g id="node5" class="node">
<title>node_agg</title>
<path fill="#4c1d95" stroke="black" stroke-width="0" d="M725,-52C725,-52 654.25,-52 654.25,-52 648.25,-52 642.25,-46 642.25,-40 642.25,-40 642.25,-28 642.25,-28 642.25,-22 648.25,-16 654.25,-16 654.25,-16 725,-16 725,-16 731,-16 737,-22 737,-28 737,-28 737,-40 737,-40 737,-46 731,-52 725,-52"/>
<text xml:space="preserve" text-anchor="middle" x="689.62" y="-37.05" font-family="Arial" font-size="11.00" fill="#c4b5fd">Node Aggregate</text>
<text xml:space="preserve" text-anchor="middle" x="689.62" y="-23.55" font-family="Arial" font-size="11.00" fill="#c4b5fd">phi_v MLP</text>
</g>
<!-- edge_update&#45;&gt;node_agg -->
<g id="edge1" class="edge">
<title>edge_update&#45;&gt;node_agg</title>
<path fill="none" stroke="#4a5568" d="M560.93,-34C581.69,-34 607.72,-34 630.85,-34"/>
<polygon fill="#4a5568" stroke="#4a5568" points="630.77,-37.5 640.77,-34 630.77,-30.5 630.77,-37.5"/>
<text xml:space="preserve" text-anchor="middle" x="601.75" y="-35.95" font-family="Arial" font-size="9.00" fill="#8090b0">sum edges</text>
</g>
<!-- decoder -->
<g id="node6" class="node">
<title>decoder</title>
<path fill="#1e3a5f" stroke="black" stroke-width="0" d="M856.5,-52C856.5,-52 823.25,-52 823.25,-52 817.25,-52 811.25,-46 811.25,-40 811.25,-40 811.25,-28 811.25,-28 811.25,-22 817.25,-16 823.25,-16 823.25,-16 856.5,-16 856.5,-16 862.5,-16 868.5,-22 868.5,-28 868.5,-28 868.5,-40 868.5,-40 868.5,-46 862.5,-52 856.5,-52"/>
<text xml:space="preserve" text-anchor="middle" x="839.88" y="-37.05" font-family="Arial" font-size="11.00" fill="#60a5fa">Decoder</text>
<text xml:space="preserve" text-anchor="middle" x="839.88" y="-23.55" font-family="Arial" font-size="11.00" fill="#60a5fa">MLP</text>
</g>
<!-- node_agg&#45;&gt;decoder -->
<g id="edge5" class="edge">
<title>node_agg&#45;&gt;decoder</title>
<path fill="none" stroke="#4a5568" d="M736.72,-34C756.99,-34 780.54,-34 799.92,-34"/>
<polygon fill="#4a5568" stroke="#4a5568" points="799.87,-37.5 809.87,-34 799.87,-30.5 799.87,-37.5"/>
<text xml:space="preserve" text-anchor="middle" x="774.12" y="-35.95" font-family="Arial" font-size="9.00" fill="#8090b0">M rounds</text>
</g>
<!-- accel -->
<g id="node7" class="node">
<title>accel</title>
<path fill="#92400e" stroke="black" stroke-width="0" d="M980.5,-52C980.5,-52 929.25,-52 929.25,-52 923.25,-52 917.25,-46 917.25,-40 917.25,-40 917.25,-28 917.25,-28 917.25,-22 923.25,-16 929.25,-16 929.25,-16 980.5,-16 980.5,-16 986.5,-16 992.5,-22 992.5,-28 992.5,-28 992.5,-40 992.5,-40 992.5,-46 986.5,-52 980.5,-52"/>
<text xml:space="preserve" text-anchor="middle" x="954.88" y="-37.05" font-family="Arial" font-size="11.00" fill="#fbbf24">Acceleration</text>
<text xml:space="preserve" text-anchor="middle" x="954.88" y="-23.55" font-family="Arial" font-size="11.00" fill="#fbbf24">per particle</text>
</g>
<!-- decoder&#45;&gt;accel -->
<g id="edge6" class="edge">
<title>decoder&#45;&gt;accel</title>
<path fill="none" stroke="#4a5568" d="M868.23,-34C879.65,-34 893.25,-34 906.22,-34"/>
<polygon fill="#4a5568" stroke="#4a5568" points="905.86,-37.5 915.86,-34 905.86,-30.5 905.86,-37.5"/>
<text xml:space="preserve" text-anchor="middle" x="892.88" y="-35.95" font-family="Arial" font-size="9.00" fill="#8090b0">a_i</text>
</g>
<!-- integrate -->
<g id="node8" class="node">
<title>integrate</title>
<path fill="#065f46" stroke="black" stroke-width="0" d="M1124.75,-52C1124.75,-52 1061.5,-52 1061.5,-52 1055.5,-52 1049.5,-46 1049.5,-40 1049.5,-40 1049.5,-28 1049.5,-28 1049.5,-22 1055.5,-16 1061.5,-16 1061.5,-16 1124.75,-16 1124.75,-16 1130.75,-16 1136.75,-22 1136.75,-28 1136.75,-28 1136.75,-40 1136.75,-40 1136.75,-46 1130.75,-52 1124.75,-52"/>
<text xml:space="preserve" text-anchor="middle" x="1093.12" y="-37.05" font-family="Arial" font-size="11.00" fill="#34d399">Euler Integrate</text>
<text xml:space="preserve" text-anchor="middle" x="1093.12" y="-23.55" font-family="Arial" font-size="11.00" fill="#34d399">v,x update</text>
</g>
<!-- accel&#45;&gt;integrate -->
<g id="edge7" class="edge">
<title>accel&#45;&gt;integrate</title>
<path fill="none" stroke="#4a5568" d="M992.39,-34C1006.46,-34 1022.84,-34 1038.21,-34"/>
<polygon fill="#4a5568" stroke="#4a5568" points="1038.2,-37.5 1048.2,-34 1038.2,-30.5 1038.2,-37.5"/>
<text xml:space="preserve" text-anchor="middle" x="1021" y="-35.95" font-family="Arial" font-size="9.00" fill="#8090b0">a * dt</text>
</g>
<!-- next -->
<g id="node9" class="node">
<title>next</title>
<path fill="#92400e" stroke="black" stroke-width="0" d="M1241.25,-52C1241.25,-52 1198.25,-52 1198.25,-52 1192.25,-52 1186.25,-46 1186.25,-40 1186.25,-40 1186.25,-28 1186.25,-28 1186.25,-22 1192.25,-16 1198.25,-16 1198.25,-16 1241.25,-16 1241.25,-16 1247.25,-16 1253.25,-22 1253.25,-28 1253.25,-28 1253.25,-40 1253.25,-40 1253.25,-46 1247.25,-52 1241.25,-52"/>
<text xml:space="preserve" text-anchor="middle" x="1219.75" y="-37.05" font-family="Arial" font-size="11.00" fill="#fbbf24">Next State</text>
<text xml:space="preserve" text-anchor="middle" x="1219.75" y="-23.55" font-family="Arial" font-size="11.00" fill="#fbbf24">t + dt</text>
</g>
<!-- integrate&#45;&gt;next -->
<g id="edge8" class="edge">
<title>integrate&#45;&gt;next</title>
<path fill="none" stroke="#4a5568" d="M1136.67,-34C1149.19,-34 1162.9,-34 1175.47,-34"/>
<polygon fill="#4a5568" stroke="#4a5568" points="1175.12,-37.5 1185.12,-34 1175.12,-30.5 1175.12,-37.5"/>
<text xml:space="preserve" text-anchor="middle" x="1161.5" y="-35.95" font-family="Arial" font-size="9.00" fill="#8090b0">x, v</text>
</g>
</g>
</svg>
