<?xml version="1.0" encoding="UTF-8" standalone="no"?>
<!DOCTYPE svg PUBLIC "-//W3C//DTD SVG 1.1//EN"
 "http://www.w3.org/Graphics/SVG/1.1/DTD/svg11.dtd">
<!-- Generated by graphviz version 14.1.3 (20260303.0454)
 -->
<!-- Title: PACNeRF Pages: 1 -->
<svg width="1296pt" height="145pt"
 viewBox="0.00 0.00 1296.00 145.00" xmlns="http://www.w3.org/2000/svg" xmlns:xlink="http://www.w3.org/1999/xlink">
<g id="graph0" class="graph" transform="scale(1 1) rotate(0) translate(4 141.41)">
<title>PACNeRF</title>
<!-- video -->
<g id="node1" class="node">
<title>video</title>
<path fill="#92400e" stroke="black" stroke-width="0" d="M54.25,-80.16C54.25,-80.16 12,-80.16 12,-80.16 6,-80.16 0,-74.16 0,-68.16 0,-68.16 0,-56.16 0,-56.16 0,-50.16 6,-44.16 12,-44.16 12,-44.16 54.25,-44.16 54.25,-44.16 60.25,-44.16 66.25,-50.16 66.25,-56.16 66.25,-56.16 66.25,-68.16 66.25,-68.16 66.25,-74.16 60.25,-80.16 54.25,-80.16"/>
<text xml:space="preserve" text-anchor="middle" x="33.12" y="-65.21" font-family="Arial" font-size="11.00" fill="#fbbf24">Multi&#45;View</text>
<text xml:space="preserve" text-anchor="middle" x="33.12" y="-51.71" font-family="Arial" font-size="11.00" fill="#fbbf24">Video</text>
</g>
<!-- nerf -->
<g id="node2" class="node">
<title>nerf</title>
<path fill="#1e3a5f" stroke="black" stroke-width="0" d="M219.5,-80.16C219.5,-80.16 155.5,-80.16 155.5,-80.16 149.5,-80.16 143.5,-74.16 143.5,-68.16 143.5,-68.16 143.5,-56.16 143.5,-56.16 143.5,-50.16 149.5,-44.16 155.5,-44.16 155.5,-44.16 219.5,-44.16 219.5,-44.16 225.5,-44.16 231.5,-50.16 231.5,-56.16 231.5,-56.16 231.5,-68.16 231.5,-68.16 231.5,-74.16 225.5,-80.16 219.5,-80.16"/>
<text xml:space="preserve" text-anchor="middle" x="187.5" y="-65.21" font-family="Arial" font-size="11.00" fill="#60a5fa">NeRF</text>
<text xml:space="preserve" text-anchor="middle" x="187.5" y="-51.71" font-family="Arial" font-size="11.00" fill="#60a5fa">Reconstruction</text>
</g>
<!-- video&#45;&gt;nerf -->
<g id="edge1" class="edge">
<title>video&#45;&gt;nerf</title>
<path fill="none" stroke="#4a5568" d="M66.07,-62.16C85.24,-62.16 110.13,-62.16 132.31,-62.16"/>
<polygon fill="#4a5568" stroke="#4a5568" points="132.1,-65.66 142.1,-62.16 132.1,-58.66 132.1,-65.66"/>
<text xml:space="preserve" text-anchor="middle" x="104.88" y="-74.61" font-family="Arial" font-size="9.00" fill="#8090b0">multi&#45;view</text>
<text xml:space="preserve" text-anchor="middle" x="104.88" y="-64.11" font-family="Arial" font-size="9.00" fill="#8090b0">images</text>
</g>
<!-- compare -->
<g id="node7" class="node">
<title>compare</title>
<path fill="#92400e" stroke="black" stroke-width="0" d="M969.25,-137.41C969.25,-137.41 920.25,-137.41 920.25,-137.41 914.25,-137.41 908.25,-131.41 908.25,-125.41 908.25,-125.41 908.25,-100.91 908.25,-100.91 908.25,-94.91 914.25,-88.91 920.25,-88.91 920.25,-88.91 969.25,-88.91 969.25,-88.91 975.25,-88.91 981.25,-94.91 981.25,-100.91 981.25,-100.91 981.25,-125.41 981.25,-125.41 981.25,-131.41 975.25,-137.41 969.25,-137.41"/>
<text xml:space="preserve" text-anchor="middle" x="944.75" y="-122.96" font-family="Arial" font-size="11.00" fill="#fbbf24">Compare</text>
<text xml:space="preserve" text-anchor="middle" x="944.75" y="-109.46" font-family="Arial" font-size="11.00" fill="#fbbf24">with Video</text>
<text xml:space="preserve" text-anchor="middle" x="944.75" y="-95.96" font-family="Arial" font-size="11.00" fill="#fbbf24">(MSE Loss)</text>
</g>
<!-- video&#45;&gt;compare -->
<g id="edge10" class="edge">
<title>video&#45;&gt;compare</title>
<path fill="none" stroke="#6b7280" stroke-dasharray="5,2" d="M65.9,-52.8C87.57,-46.79 117.03,-39.35 143.5,-35.16 378.7,2.09 445.75,17.53 679.25,-29.16 757.76,-44.86 845.8,-75.57 897.91,-95.19"/>
<polygon fill="#6b7280" stroke="#6b7280" points="896.46,-98.39 907.05,-98.66 898.95,-91.84 896.46,-98.39"/>
<text xml:space="preserve" text-anchor="middle" x="477.12" y="-16.49" font-family="Arial" font-size="9.00" fill="#8090b0">ground</text>
<text xml:space="preserve" text-anchor="middle" x="477.12" y="-5.99" font-family="Arial" font-size="9.00" fill="#8090b0">truth</text>
</g>
<!-- geom -->
<g id="node3" class="node">
<title>geom</title>
<path fill="#1e3a5f" stroke="black" stroke-width="0" d="M348,-86.41C348,-86.41 308.75,-86.41 308.75,-86.41 302.75,-86.41 296.75,-80.41 296.75,-74.41 296.75,-74.41 296.75,-49.91 296.75,-49.91 296.75,-43.91 302.75,-37.91 308.75,-37.91 308.75,-37.91 348,-37.91 348,-37.91 354,-37.91 360,-43.91 360,-49.91 360,-49.91 360,-74.41 360,-74.41 360,-80.41 354,-86.41 348,-86.41"/>
<text xml:space="preserve" text-anchor="middle" x="328.38" y="-71.96" font-family="Arial" font-size="11.00" fill="#60a5fa">Extract</text>
<text xml:space="preserve" text-anchor="middle" x="328.38" y="-58.46" font-family="Arial" font-size="11.00" fill="#60a5fa">Geometry</text>
<text xml:space="preserve" text-anchor="middle" x="328.38" y="-44.96" font-family="Arial" font-size="11.00" fill="#60a5fa">(Density)</text>
</g>
<!-- nerf&#45;&gt;geom -->
<g id="edge2" class="edge">
<title>nerf&#45;&gt;geom</title>
<path fill="none" stroke="#4a5568" d="M231.3,-62.16C248.52,-62.16 268.33,-62.16 285.46,-62.16"/>
<polygon fill="#4a5568" stroke="#4a5568" points="285.32,-65.66 295.32,-62.16 285.32,-58.66 285.32,-65.66"/>
<text xml:space="preserve" text-anchor="middle" x="264.12" y="-74.61" font-family="Arial" font-size="9.00" fill="#8090b0">density</text>
<text xml:space="preserve" text-anchor="middle" x="264.12" y="-64.11" font-family="Arial" font-size="9.00" fill="#8090b0">field</text>
</g>
<!-- init_mpm -->
<g id="node4" class="node">
<title>init_mpm</title>
<path fill="#065f46" stroke="black" stroke-width="0" d="M508,-80.16C508,-80.16 446.25,-80.16 446.25,-80.16 440.25,-80.16 434.25,-74.16 434.25,-68.16 434.25,-68.16 434.25,-56.16 434.25,-56.16 434.25,-50.16 440.25,-44.16 446.25,-44.16 446.25,-44.16 508,-44.16 508,-44.16 514,-44.16 520,-50.16 520,-56.16 520,-56.16 520,-68.16 520,-68.16 520,-74.16 514,-80.16 508,-80.16"/>
<text xml:space="preserve" text-anchor="middle" x="477.12" y="-65.21" font-family="Arial" font-size="11.00" fill="#34d399">Initialize</text>
<text xml:space="preserve" text-anchor="middle" x="477.12" y="-51.71" font-family="Arial" font-size="11.00" fill="#34d399">MPM Particles</text>
</g>
<!-- geom&#45;&gt;init_mpm -->
<g id="edge3" class="edge">
<title>geom&#45;&gt;init_mpm</title>
<path fill="none" stroke="#4a5568" d="M359.78,-62.16C377.99,-62.16 401.64,-62.16 422.86,-62.16"/>
<polygon fill="#4a5568" stroke="#4a5568" points="422.84,-65.66 432.84,-62.16 422.84,-58.66 422.84,-65.66"/>
<text xml:space="preserve" text-anchor="middle" x="397.12" y="-74.61" font-family="Arial" font-size="9.00" fill="#8090b0">threshold</text>
<text xml:space="preserve" text-anchor="middle" x="397.12" y="-64.11" font-family="Arial" font-size="9.00" fill="#8090b0">sampling</text>
</g>
<!-- diff_mpm -->
<g id="node5" class="node">
<title>diff_mpm</title>
<path fill="#065f46" stroke="black" stroke-width="0" d="M667.25,-86.41C667.25,-86.41 606.25,-86.41 606.25,-86.41 600.25,-86.41 594.25,-80.41 594.25,-74.41 594.25,-74.41 594.25,-49.91 594.25,-49.91 594.25,-43.91 600.25,-37.91 606.25,-37.91 606.25,-37.91 667.25,-37.91 667.25,-37.91 673.25,-37.91 679.25,-43.91 679.25,-49.91 679.25,-49.91 679.25,-74.41 679.25,-74.41 679.25,-80.41 673.25,-86.41 667.25,-86.41"/>
<text xml:space="preserve" text-anchor="middle" x="636.75" y="-71.96" font-family="Arial" font-size="11.00" fill="#34d399">Differentiable</text>
<text xml:space="preserve" text-anchor="middle" x="636.75" y="-58.46" font-family="Arial" font-size="11.00" fill="#34d399">MPM Forward</text>
<text xml:space="preserve" text-anchor="middle" x="636.75" y="-44.96" font-family="Arial" font-size="11.00" fill="#34d399">(DiffTaichi)</text>
</g>
<!-- init_mpm&#45;&gt;diff_mpm -->
<g id="edge4" class="edge">
<title>init_mpm&#45;&gt;diff_mpm</title>
<path fill="none" stroke="#4a5568" d="M519.95,-62.16C539.25,-62.16 562.39,-62.16 582.88,-62.16"/>
<polygon fill="#4a5568" stroke="#4a5568" points="582.76,-65.66 592.76,-62.16 582.76,-58.66 582.76,-65.66"/>
<text xml:space="preserve" text-anchor="middle" x="557.12" y="-74.61" font-family="Arial" font-size="9.00" fill="#8090b0">particles</text>
<text xml:space="preserve" text-anchor="middle" x="557.12" y="-64.11" font-family="Arial" font-size="9.00" fill="#8090b0">+ params</text>
</g>
<!-- render -->
<g id="node6" class="node">
<title>render</title>
<path fill="#1e3a5f" stroke="black" stroke-width="0" d="M822,-122.16C822,-122.16 766.25,-122.16 766.25,-122.16 760.25,-122.16 754.25,-116.16 754.25,-110.16 754.25,-110.16 754.25,-98.16 754.25,-98.16 754.25,-92.16 760.25,-86.16 766.25,-86.16 766.25,-86.16 822,-86.16 822,-86.16 828,-86.16 834,-92.16 834,-98.16 834,-98.16 834,-110.16 834,-110.16 834,-116.16 828,-122.16 822,-122.16"/>
<text xml:space="preserve" text-anchor="middle" x="794.12" y="-107.21" font-family="Arial" font-size="11.00" fill="#60a5fa">Differentiable</text>
<text xml:space="preserve" text-anchor="middle" x="794.12" y="-93.71" font-family="Arial" font-size="11.00" fill="#60a5fa">Rendering</text>
</g>
<!-- diff_mpm&#45;&gt;render -->
<g id="edge5" class="edge">
<title>diff_mpm&#45;&gt;render</title>
<path fill="none" stroke="#4a5568" d="M678.98,-73.3C698.79,-78.66 722.7,-85.12 743.5,-90.75"/>
<polygon fill="#4a5568" stroke="#4a5568" points="742.35,-94.06 752.92,-93.29 744.18,-87.3 742.35,-94.06"/>
<text xml:space="preserve" text-anchor="middle" x="716.75" y="-100.61" font-family="Arial" font-size="9.00" fill="#8090b0">deformed</text>
<text xml:space="preserve" text-anchor="middle" x="716.75" y="-90.11" font-family="Arial" font-size="9.00" fill="#8090b0">particles</text>
</g>
<!-- render&#45;&gt;compare -->
<g id="edge6" class="edge">
<title>render&#45;&gt;compare</title>
<path fill="none" stroke="#4a5568" d="M833.79,-106.5C853.15,-107.67 876.73,-109.1 897.09,-110.33"/>
<polygon fill="#4a5568" stroke="#4a5568" points="896.63,-113.81 906.83,-110.92 897.06,-106.83 896.63,-113.81"/>
<text xml:space="preserve" text-anchor="middle" x="871.12" y="-122.18" font-family="Arial" font-size="9.00" fill="#8090b0">predicted</text>
<text xml:space="preserve" text-anchor="middle" x="871.12" y="-111.68" font-family="Arial" font-size="9.00" fill="#8090b0">frames</text>
</g>
<!-- backprop -->
<g id="node8" class="node">
<title>backprop</title>
<path fill="#4c1d95" stroke="black" stroke-width="0" d="M1087.25,-122.16C1087.25,-122.16 1048.75,-122.16 1048.75,-122.16 1042.75,-122.16 1036.75,-116.16 1036.75,-110.16 1036.75,-110.16 1036.75,-98.16 1036.75,-98.16 1036.75,-92.16 1042.75,-86.16 1048.75,-86.16 1048.75,-86.16 1087.25,-86.16 1087.25,-86.16 1093.25,-86.16 1099.25,-92.16 1099.25,-98.16 1099.25,-98.16 1099.25,-110.16 1099.25,-110.16 1099.25,-116.16 1093.25,-122.16 1087.25,-122.16"/>
<text xml:space="preserve" text-anchor="middle" x="1068" y="-107.21" font-family="Arial" font-size="11.00" fill="#c4b5fd">Backprop</text>
<text xml:space="preserve" text-anchor="middle" x="1068" y="-93.71" font-family="Arial" font-size="11.00" fill="#c4b5fd">Gradients</text>
</g>
<!-- compare&#45;&gt;backprop -->
<g id="edge7" class="edge">
<title>compare&#45;&gt;backprop</title>
<path fill="none" stroke="#ef4444" d="M981.15,-110.53C995.16,-109.49 1011.35,-108.29 1025.88,-107.21"/>
<polygon fill="#ef4444" stroke="#ef4444" points="1025.87,-110.72 1035.59,-106.49 1025.35,-103.74 1025.87,-110.72"/>
<text xml:space="preserve" text-anchor="middle" x="1009" y="-121.38" font-family="Arial" font-size="9.00" fill="#ef4444">pixel</text>
<text xml:space="preserve" text-anchor="middle" x="1009" y="-110.88" font-family="Arial" font-size="9.00" fill="#ef4444">error</text>
</g>
<!-- update -->
<g id="node9" class="node">
<title>update</title>
<path fill="#4c1d95" stroke="black" stroke-width="0" d="M1275.75,-84.16C1275.75,-84.16 1196,-84.16 1196,-84.16 1190,-84.16 1184,-78.16 1184,-72.16 1184,-72.16 1184,-60.16 1184,-60.16 1184,-54.16 1190,-48.16 1196,-48.16 1196,-48.16 1275.75,-48.16 1275.75,-48.16 1281.75,-48.16 1287.75,-54.16 1287.75,-60.16 1287.75,-60.16 1287.75,-72.16 1287.75,-72.16 1287.75,-78.16 1281.75,-84.16 1275.75,-84.16"/>
<text xml:space="preserve" text-anchor="middle" x="1235.88" y="-69.21" font-family="Arial" font-size="11.00" fill="#c4b5fd">Update Physical</text>
<text xml:space="preserve" text-anchor="middle" x="1235.88" y="-55.71" font-family="Arial" font-size="11.00" fill="#c4b5fd">Params (E, v, rho)</text>
</g>
<!-- backprop&#45;&gt;update -->
<g id="edge8" class="edge">
<title>backprop&#45;&gt;update</title>
<path fill="none" stroke="#ef4444" d="M1099.04,-97.28C1119.7,-92.55 1147.87,-86.09 1173.2,-80.29"/>
<polygon fill="#ef4444" stroke="#ef4444" points="1173.78,-83.75 1182.75,-78.1 1172.22,-76.92 1173.78,-83.75"/>
<text xml:space="preserve" text-anchor="middle" x="1141.62" y="-94.88" font-family="Arial" font-size="9.00" fill="#ef4444">grad E,v,rho</text>
</g>
<!-- update&#45;&gt;diff_mpm -->
<g id="edge9" class="edge">
<title>update&#45;&gt;diff_mpm</title>
<path fill="none" stroke="#ef4444" stroke-dasharray="5,2" d="M1184.18,-58.72C1151.4,-54.54 1107.77,-50.16 1069,-50.16 793.12,-50.16 793.12,-50.16 793.12,-50.16 758.82,-50.16 720.38,-53.1 690.32,-56.08"/>
<polygon fill="#ef4444" stroke="#ef4444" points="690.33,-52.56 680.74,-57.06 691.04,-59.52 690.33,-52.56"/>
<text xml:space="preserve" text-anchor="middle" x="944.75" y="-62.61" font-family="Arial" font-size="9.00" fill="#ef4444">iterate until</text>
<text xml:space="preserve" text-anchor="middle" x="944.75" y="-52.11" font-family="Arial" font-size="9.00" fill="#ef4444">converge</text>
</g>
</g>
</svg>
