<?xml version="1.0" encoding="UTF-8" standalone="no"?>
<!DOCTYPE svg PUBLIC "-//W3C//DTD SVG 1.1//EN"
 "http://www.w3.org/Graphics/SVG/1.1/DTD/svg11.dtd">
<!-- Generated by graphviz version 14.1.3 (20260303.0454)
 -->
<!-- Title: PhysTwin Pages: 1 -->
<svg width="233pt" height="661pt"
 viewBox="0.00 0.00 233.00 661.00" xmlns="http://www.w3.org/2000/svg" xmlns:xlink="http://www.w3.org/1999/xlink">
<g id="graph0" class="graph" transform="scale(1 1) rotate(0) translate(4 657)">
<title>PhysTwin</title>
<g id="clust1" class="cluster">
<title>cluster_phase1</title>
<path fill="#0c1929" stroke="#1e40af" stroke-width="1.5" stroke-dasharray="5,2" d="M57,-396C57,-396 205,-396 205,-396 211,-396 217,-402 217,-408 217,-408 217,-633 217,-633 217,-639 211,-645 205,-645 205,-645 57,-645 57,-645 51,-645 45,-639 45,-633 45,-633 45,-408 45,-408 45,-402 51,-396 57,-396"/>
<text xml:space="preserve" text-anchor="middle" x="128" y="-630.55" font-family="Arial" font-size="11.00" fill="#60a5fa">Phase 1: Visual Reconstruction</text>
</g>
<g id="clust2" class="cluster">
<title>cluster_phase2</title>
<path fill="#041f15" stroke="#065f46" stroke-width="1.5" stroke-dasharray="5,2" d="M20,-97.5C20,-97.5 157,-97.5 157,-97.5 163,-97.5 169,-103.5 169,-109.5 169,-109.5 169,-345 169,-345 169,-351 163,-357 157,-357 157,-357 20,-357 20,-357 14,-357 8,-351 8,-345 8,-345 8,-109.5 8,-109.5 8,-103.5 14,-97.5 20,-97.5"/>
<text xml:space="preserve" text-anchor="middle" x="88.38" y="-342.55" font-family="Arial" font-size="11.00" fill="#34d399">Phase 2: Physics Optimization</text>
</g>
<!-- rgbd -->
<g id="node1" class="node">
<title>rgbd</title>
<path fill="#92400e" stroke="black" stroke-width="0" d="M141.25,-615.5C141.25,-615.5 84.75,-615.5 84.75,-615.5 78.75,-615.5 72.75,-609.5 72.75,-603.5 72.75,-603.5 72.75,-591.5 72.75,-591.5 72.75,-585.5 78.75,-579.5 84.75,-579.5 84.75,-579.5 141.25,-579.5 141.25,-579.5 147.25,-579.5 153.25,-585.5 153.25,-591.5 153.25,-591.5 153.25,-603.5 153.25,-603.5 153.25,-609.5 147.25,-615.5 141.25,-615.5"/>
<text xml:space="preserve" text-anchor="middle" x="113" y="-600.55" font-family="Arial" font-size="11.00" fill="#fbbf24">RGBD Video</text>
<text xml:space="preserve" text-anchor="middle" x="113" y="-587.05" font-family="Arial" font-size="11.00" fill="#fbbf24">(Single View)</text>
</g>
<!-- sam -->
<g id="node2" class="node">
<title>sam</title>
<path fill="#1e3a5f" stroke="black" stroke-width="0" d="M100.75,-533C100.75,-533 65.25,-533 65.25,-533 59.25,-533 53.25,-527 53.25,-521 53.25,-521 53.25,-509 53.25,-509 53.25,-503 59.25,-497 65.25,-497 65.25,-497 100.75,-497 100.75,-497 106.75,-497 112.75,-503 112.75,-509 112.75,-509 112.75,-521 112.75,-521 112.75,-527 106.75,-533 100.75,-533"/>
<text xml:space="preserve" text-anchor="middle" x="83" y="-518.05" font-family="Arial" font-size="11.00" fill="#60a5fa">Segment</text>
<text xml:space="preserve" text-anchor="middle" x="83" y="-504.55" font-family="Arial" font-size="11.00" fill="#60a5fa">(SAM2)</text>
</g>
<!-- rgbd&#45;&gt;sam -->
<g id="edge1" class="edge">
<title>rgbd&#45;&gt;sam</title>
<path fill="none" stroke="#4a5568" d="M106.78,-579.82C102.87,-569.31 97.72,-555.5 93.21,-543.41"/>
<polygon fill="#4a5568" stroke="#4a5568" points="96.61,-542.5 89.84,-534.35 90.05,-544.95 96.61,-542.5"/>
<text xml:space="preserve" text-anchor="middle" x="113.67" y="-552.95" font-family="Arial" font-size="9.00" fill="#8090b0">frames</text>
</g>
<!-- track -->
<g id="node3" class="node">
<title>track</title>
<path fill="#1e3a5f" stroke="black" stroke-width="0" d="M196.75,-533C196.75,-533 143.25,-533 143.25,-533 137.25,-533 131.25,-527 131.25,-521 131.25,-521 131.25,-509 131.25,-509 131.25,-503 137.25,-497 143.25,-497 143.25,-497 196.75,-497 196.75,-497 202.75,-497 208.75,-503 208.75,-509 208.75,-509 208.75,-521 208.75,-521 208.75,-527 202.75,-533 196.75,-533"/>
<text xml:space="preserve" text-anchor="middle" x="170" y="-518.05" font-family="Arial" font-size="11.00" fill="#60a5fa">Track Motion</text>
<text xml:space="preserve" text-anchor="middle" x="170" y="-504.55" font-family="Arial" font-size="11.00" fill="#60a5fa">(CoTracker)</text>
</g>
<!-- rgbd&#45;&gt;track -->
<g id="edge2" class="edge">
<title>rgbd&#45;&gt;track</title>
<path fill="none" stroke="#4a5568" d="M124.81,-579.82C132.48,-568.99 142.63,-554.65 151.38,-542.3"/>
<polygon fill="#4a5568" stroke="#4a5568" points="154.21,-544.35 157.13,-534.17 148.5,-540.31 154.21,-544.35"/>
<text xml:space="preserve" text-anchor="middle" x="158.79" y="-552.95" font-family="Arial" font-size="9.00" fill="#8090b0">frames</text>
</g>
<!-- gs_init -->
<g id="node4" class="node">
<title>gs_init</title>
<path fill="#1e3a5f" stroke="black" stroke-width="0" d="M136.62,-440C136.62,-440 97.38,-440 97.38,-440 91.38,-440 85.38,-434 85.38,-428 85.38,-428 85.38,-416 85.38,-416 85.38,-410 91.38,-404 97.38,-404 97.38,-404 136.62,-404 136.62,-404 142.62,-404 148.62,-410 148.62,-416 148.62,-416 148.62,-428 148.62,-428 148.62,-434 142.62,-440 136.62,-440"/>
<text xml:space="preserve" text-anchor="middle" x="117" y="-425.05" font-family="Arial" font-size="11.00" fill="#60a5fa">3DGS Init</text>
<text xml:space="preserve" text-anchor="middle" x="117" y="-411.55" font-family="Arial" font-size="11.00" fill="#60a5fa">+ Depth</text>
</g>
<!-- sam&#45;&gt;gs_init -->
<g id="edge3" class="edge">
<title>sam&#45;&gt;gs_init</title>
<path fill="none" stroke="#4a5568" d="M89.24,-497.31C94.14,-484.18 101.08,-465.61 106.79,-450.32"/>
<polygon fill="#4a5568" stroke="#4a5568" points="109.94,-451.9 110.16,-441.31 103.38,-449.45 109.94,-451.9"/>
<text xml:space="preserve" text-anchor="middle" x="115.42" y="-470.45" font-family="Arial" font-size="9.00" fill="#8090b0">object</text>
<text xml:space="preserve" text-anchor="middle" x="115.42" y="-459.95" font-family="Arial" font-size="9.00" fill="#8090b0">mask</text>
</g>
<!-- track&#45;&gt;gs_init -->
<g id="edge4" class="edge">
<title>track&#45;&gt;gs_init</title>
<path fill="none" stroke="#4a5568" d="M160.28,-497.31C152.48,-483.92 141.4,-464.89 132.4,-449.44"/>
<polygon fill="#4a5568" stroke="#4a5568" points="135.66,-448.08 127.6,-441.2 129.61,-451.6 135.66,-448.08"/>
<text xml:space="preserve" text-anchor="middle" x="160.25" y="-470.45" font-family="Arial" font-size="9.00" fill="#8090b0">point</text>
<text xml:space="preserve" text-anchor="middle" x="160.25" y="-459.95" font-family="Arial" font-size="9.00" fill="#8090b0">tracks</text>
</g>
<!-- contact -->
<g id="node5" class="node">
<title>contact</title>
<path fill="#4c1d95" stroke="black" stroke-width="0" d="M104.62,-327.5C104.62,-327.5 47.38,-327.5 47.38,-327.5 41.38,-327.5 35.38,-321.5 35.38,-315.5 35.38,-315.5 35.38,-303.5 35.38,-303.5 35.38,-297.5 41.38,-291.5 47.38,-291.5 47.38,-291.5 104.62,-291.5 104.62,-291.5 110.62,-291.5 116.62,-297.5 116.62,-303.5 116.62,-303.5 116.62,-315.5 116.62,-315.5 116.62,-321.5 110.62,-327.5 104.62,-327.5"/>
<text xml:space="preserve" text-anchor="middle" x="76" y="-312.55" font-family="Arial" font-size="11.00" fill="#c4b5fd">GNN Contact</text>
<text xml:space="preserve" text-anchor="middle" x="76" y="-299.05" font-family="Arial" font-size="11.00" fill="#c4b5fd">Estimator</text>
</g>
<!-- gs_init&#45;&gt;contact -->
<g id="edge8" class="edge">
<title>gs_init&#45;&gt;contact</title>
<path fill="none" stroke="#4a5568" d="M94.79,-404.17C89.44,-398.96 84.38,-392.78 81.25,-386 74.49,-371.37 73,-353.43 73.29,-338.7"/>
<polygon fill="#4a5568" stroke="#4a5568" points="76.78,-338.91 73.79,-328.75 69.79,-338.56 76.78,-338.91"/>
<text xml:space="preserve" text-anchor="middle" x="110.12" y="-377.45" font-family="Arial" font-size="9.00" fill="#8090b0">3D Gaussians</text>
<text xml:space="preserve" text-anchor="middle" x="110.12" y="-366.95" font-family="Arial" font-size="9.00" fill="#8090b0">+ geometry</text>
</g>
<!-- diff_mpm -->
<g id="node6" class="node">
<title>diff_mpm</title>
<path fill="#065f46" stroke="black" stroke-width="0" d="M122.88,-234.5C122.88,-234.5 67.12,-234.5 67.12,-234.5 61.12,-234.5 55.12,-228.5 55.12,-222.5 55.12,-222.5 55.12,-210.5 55.12,-210.5 55.12,-204.5 61.12,-198.5 67.12,-198.5 67.12,-198.5 122.88,-198.5 122.88,-198.5 128.88,-198.5 134.88,-204.5 134.88,-210.5 134.88,-210.5 134.88,-222.5 134.88,-222.5 134.88,-228.5 128.88,-234.5 122.88,-234.5"/>
<text xml:space="preserve" text-anchor="middle" x="95" y="-219.55" font-family="Arial" font-size="11.00" fill="#34d399">Differentiable</text>
<text xml:space="preserve" text-anchor="middle" x="95" y="-206.05" font-family="Arial" font-size="11.00" fill="#34d399">MPM (Warp)</text>
</g>
<!-- gs_init&#45;&gt;diff_mpm -->
<g id="edge9" class="edge">
<title>gs_init&#45;&gt;diff_mpm</title>
<path fill="none" stroke="#4a5568" d="M130.27,-404.12C133.82,-398.65 137.17,-392.34 139,-386 141.58,-377.03 139.78,-374.3 139,-365 134.76,-314.47 139.46,-299.33 120,-252.5 118.81,-249.63 117.34,-246.76 115.72,-243.97"/>
<polygon fill="#4a5568" stroke="#4a5568" points="118.65,-242.06 110.22,-235.64 112.8,-245.92 118.65,-242.06"/>
<text xml:space="preserve" text-anchor="middle" x="155.62" y="-311.45" font-family="Arial" font-size="9.00" fill="#8090b0">initial</text>
<text xml:space="preserve" text-anchor="middle" x="155.62" y="-300.95" font-family="Arial" font-size="9.00" fill="#8090b0">particles</text>
</g>
<!-- contact&#45;&gt;diff_mpm -->
<g id="edge5" class="edge">
<title>contact&#45;&gt;diff_mpm</title>
<path fill="none" stroke="#4a5568" d="M79.48,-291.81C82.2,-278.81 86.03,-260.47 89.2,-245.27"/>
<polygon fill="#4a5568" stroke="#4a5568" points="92.55,-246.38 91.16,-235.87 85.69,-244.95 92.55,-246.38"/>
<text xml:space="preserve" text-anchor="middle" x="101.83" y="-264.95" font-family="Arial" font-size="9.00" fill="#8090b0">contact</text>
<text xml:space="preserve" text-anchor="middle" x="101.83" y="-254.45" font-family="Arial" font-size="9.00" fill="#8090b0">forces</text>
</g>
<!-- optimize -->
<g id="node7" class="node">
<title>optimize</title>
<path fill="#065f46" stroke="black" stroke-width="0" d="M104.62,-141.5C104.62,-141.5 53.37,-141.5 53.37,-141.5 47.38,-141.5 41.38,-135.5 41.38,-129.5 41.38,-129.5 41.38,-117.5 41.38,-117.5 41.38,-111.5 47.38,-105.5 53.38,-105.5 53.38,-105.5 104.62,-105.5 104.62,-105.5 110.62,-105.5 116.62,-111.5 116.62,-117.5 116.62,-117.5 116.62,-129.5 116.62,-129.5 116.62,-135.5 110.62,-141.5 104.62,-141.5"/>
<text xml:space="preserve" text-anchor="middle" x="79" y="-126.55" font-family="Arial" font-size="11.00" fill="#34d399">Optimize</text>
<text xml:space="preserve" text-anchor="middle" x="79" y="-113.05" font-family="Arial" font-size="11.00" fill="#34d399">E, v Params</text>
</g>
<!-- diff_mpm&#45;&gt;optimize -->
<g id="edge6" class="edge">
<title>diff_mpm&#45;&gt;optimize</title>
<path fill="none" stroke="#4a5568" d="M60.95,-198.55C54.44,-193.66 48.49,-187.66 44.75,-180.5 40.43,-172.23 41.23,-168.14 44.75,-159.5 46.09,-156.22 47.9,-153.08 49.99,-150.12"/>
<polygon fill="#4a5568" stroke="#4a5568" points="52.65,-152.4 56.43,-142.5 47.3,-147.89 52.65,-152.4"/>
<text xml:space="preserve" text-anchor="middle" x="63.88" y="-171.95" font-family="Arial" font-size="9.00" fill="#8090b0">sim vs</text>
<text xml:space="preserve" text-anchor="middle" x="63.88" y="-161.45" font-family="Arial" font-size="9.00" fill="#8090b0">observed</text>
</g>
<!-- optimize&#45;&gt;diff_mpm -->
<g id="edge7" class="edge">
<title>optimize&#45;&gt;diff_mpm</title>
<path fill="none" stroke="#ef4444" stroke-dasharray="5,2" d="M81.97,-141.39C84.24,-154.32 87.43,-172.44 90.08,-187.52"/>
<polygon fill="#ef4444" stroke="#ef4444" points="86.62,-188.08 91.8,-197.32 93.52,-186.86 86.62,-188.08"/>
<text xml:space="preserve" text-anchor="middle" x="102.68" y="-166.7" font-family="Arial" font-size="9.00" fill="#ef4444">update</text>
</g>
<!-- twin -->
<g id="node8" class="node">
<title>twin</title>
<path fill="#92400e" stroke="black" stroke-width="0" d="M117.38,-48.5C117.38,-48.5 40.62,-48.5 40.62,-48.5 34.62,-48.5 28.62,-42.5 28.62,-36.5 28.62,-36.5 28.62,-12 28.62,-12 28.62,-6 34.62,0 40.62,0 40.62,0 117.38,0 117.38,0 123.38,0 129.38,-6 129.38,-12 129.38,-12 129.38,-36.5 129.38,-36.5 129.38,-42.5 123.38,-48.5 117.38,-48.5"/>
<text xml:space="preserve" text-anchor="middle" x="79" y="-34.05" font-family="Arial" font-size="11.00" fill="#fbbf24">Digital Twin</text>
<text xml:space="preserve" text-anchor="middle" x="79" y="-20.55" font-family="Arial" font-size="11.00" fill="#fbbf24">(Interactive)</text>
<text xml:space="preserve" text-anchor="middle" x="79" y="-7.05" font-family="Arial" font-size="11.00" fill="#fbbf24">17 FPS, IoU 84%</text>
</g>
<!-- optimize&#45;&gt;twin -->
<g id="edge10" class="edge">
<title>optimize&#45;&gt;twin</title>
<path fill="none" stroke="#4a5568" d="M79,-105.56C79,-92.9 79,-75.16 79,-59.57"/>
<polygon fill="#4a5568" stroke="#4a5568" points="82.5,-59.7 79,-49.7 75.5,-59.7 82.5,-59.7"/>
<text xml:space="preserve" text-anchor="middle" x="99.25" y="-78.95" font-family="Arial" font-size="9.00" fill="#8090b0">calibrated</text>
<text xml:space="preserve" text-anchor="middle" x="99.25" y="-68.45" font-family="Arial" font-size="9.00" fill="#8090b0">params</text>
</g>
</g>
</svg>
