<?xml version="1.0" encoding="UTF-8" standalone="no"?>
<!DOCTYPE svg PUBLIC "-//W3C//DTD SVG 1.1//EN"
 "http://www.w3.org/Graphics/SVG/1.1/DTD/svg11.dtd">
<!-- Generated by graphviz version 14.1.3 (20260303.0454)
 -->
<!-- Title: PhysGaussian Pages: 1 -->
<svg width="968pt" height="204pt"
 viewBox="0.00 0.00 968.00 204.00" xmlns="http://www.w3.org/2000/svg" xmlns:xlink="http://www.w3.org/1999/xlink">
<g id="graph0" class="graph" transform="scale(1 1) rotate(0) translate(4 200)">
<title>PhysGaussian</title>
<g id="clust1" class="cluster">
<title>cluster_transform</title>
<path fill="#1a0533" stroke="#6d28d9" stroke-width="1.5" stroke-dasharray="5,2" d="M740.5,-8C740.5,-8 821,-8 821,-8 827,-8 833,-14 833,-20 833,-20 833,-176 833,-176 833,-182 827,-188 821,-188 821,-188 740.5,-188 740.5,-188 734.5,-188 728.5,-182 728.5,-176 728.5,-176 728.5,-20 728.5,-20 728.5,-14 734.5,-8 740.5,-8"/>
<text xml:space="preserve" text-anchor="middle" x="780.75" y="-174.5" font-family="Arial" font-size="10.00" fill="#c4b5fd">Transform Gaussian</text>
</g>
<!-- scene -->
<g id="node1" class="node">
<title>scene</title>
<path fill="#92400e" stroke="black" stroke-width="0" d="M67.75,-163.25C67.75,-163.25 12,-163.25 12,-163.25 6,-163.25 0,-157.25 0,-151.25 0,-151.25 0,-126.75 0,-126.75 0,-120.75 6,-114.75 12,-114.75 12,-114.75 67.75,-114.75 67.75,-114.75 73.75,-114.75 79.75,-120.75 79.75,-126.75 79.75,-126.75 79.75,-151.25 79.75,-151.25 79.75,-157.25 73.75,-163.25 67.75,-163.25"/>
<text xml:space="preserve" text-anchor="middle" x="39.88" y="-148.8" font-family="Arial" font-size="11.00" fill="#fbbf24">3DGS Scene</text>
<text xml:space="preserve" text-anchor="middle" x="39.88" y="-135.3" font-family="Arial" font-size="11.00" fill="#fbbf24">N Gaussians</text>
<text xml:space="preserve" text-anchor="middle" x="39.88" y="-121.8" font-family="Arial" font-size="11.00" fill="#fbbf24">{mu, S, c, a}</text>
</g>
<!-- embed -->
<g id="node2" class="node">
<title>embed</title>
<path fill="#065f46" stroke="black" stroke-width="0" d="M255.5,-163.25C255.5,-163.25 190,-163.25 190,-163.25 184,-163.25 178,-157.25 178,-151.25 178,-151.25 178,-126.75 178,-126.75 178,-120.75 184,-114.75 190,-114.75 190,-114.75 255.5,-114.75 255.5,-114.75 261.5,-114.75 267.5,-120.75 267.5,-126.75 267.5,-126.75 267.5,-151.25 267.5,-151.25 267.5,-157.25 261.5,-163.25 255.5,-163.25"/>
<text xml:space="preserve" text-anchor="middle" x="222.75" y="-148.8" font-family="Arial" font-size="11.00" fill="#34d399">Embed in</text>
<text xml:space="preserve" text-anchor="middle" x="222.75" y="-135.3" font-family="Arial" font-size="11.00" fill="#34d399">Continuum</text>
<text xml:space="preserve" text-anchor="middle" x="222.75" y="-121.8" font-family="Arial" font-size="11.00" fill="#34d399">Assign Material</text>
</g>
<!-- scene&#45;&gt;embed -->
<g id="edge1" class="edge">
<title>scene&#45;&gt;embed</title>
<path fill="none" stroke="#4a5568" d="M79.68,-139C105.13,-139 138.79,-139 166.96,-139"/>
<polygon fill="#4a5568" stroke="#4a5568" points="166.74,-142.5 176.74,-139 166.74,-135.5 166.74,-142.5"/>
<text xml:space="preserve" text-anchor="middle" x="128.5" y="-151.45" font-family="Arial" font-size="9.00" fill="#8090b0">each Gaussian</text>
<text xml:space="preserve" text-anchor="middle" x="128.5" y="-140.95" font-family="Arial" font-size="9.00" fill="#8090b0">= 1 particle</text>
</g>
<!-- consti -->
<g id="node3" class="node">
<title>consti</title>
<path fill="#065f46" stroke="black" stroke-width="0" d="M399.75,-112.25C399.75,-112.25 349.25,-112.25 349.25,-112.25 343.25,-112.25 337.25,-106.25 337.25,-100.25 337.25,-100.25 337.25,-75.75 337.25,-75.75 337.25,-69.75 343.25,-63.75 349.25,-63.75 349.25,-63.75 399.75,-63.75 399.75,-63.75 405.75,-63.75 411.75,-69.75 411.75,-75.75 411.75,-75.75 411.75,-100.25 411.75,-100.25 411.75,-106.25 405.75,-112.25 399.75,-112.25"/>
<text xml:space="preserve" text-anchor="middle" x="374.5" y="-97.8" font-family="Arial" font-size="11.00" fill="#34d399">Constitutive</text>
<text xml:space="preserve" text-anchor="middle" x="374.5" y="-84.3" font-family="Arial" font-size="11.00" fill="#34d399">Model</text>
<text xml:space="preserve" text-anchor="middle" x="374.5" y="-70.8" font-family="Arial" font-size="11.00" fill="#34d399">sigma = f(F)</text>
</g>
<!-- embed&#45;&gt;consti -->
<g id="edge2" class="edge">
<title>embed&#45;&gt;consti</title>
<path fill="none" stroke="#4a5568" d="M267.47,-124.11C286.09,-117.77 307.83,-110.36 326.77,-103.91"/>
<polygon fill="#4a5568" stroke="#4a5568" points="327.78,-107.27 336.12,-100.73 325.52,-100.64 327.78,-107.27"/>
<text xml:space="preserve" text-anchor="middle" x="302.75" y="-129" font-family="Arial" font-size="9.00" fill="#8090b0">material</text>
<text xml:space="preserve" text-anchor="middle" x="302.75" y="-118.5" font-family="Arial" font-size="9.00" fill="#8090b0">params</text>
</g>
<!-- mpm -->
<g id="node4" class="node">
<title>mpm</title>
<path fill="#065f46" stroke="black" stroke-width="0" d="M542.5,-112.25C542.5,-112.25 485.25,-112.25 485.25,-112.25 479.25,-112.25 473.25,-106.25 473.25,-100.25 473.25,-100.25 473.25,-75.75 473.25,-75.75 473.25,-69.75 479.25,-63.75 485.25,-63.75 485.25,-63.75 542.5,-63.75 542.5,-63.75 548.5,-63.75 554.5,-69.75 554.5,-75.75 554.5,-75.75 554.5,-100.25 554.5,-100.25 554.5,-106.25 548.5,-112.25 542.5,-112.25"/>
<text xml:space="preserve" text-anchor="middle" x="513.88" y="-97.8" font-family="Arial" font-size="11.00" fill="#34d399">MPM Step</text>
<text xml:space="preserve" text-anchor="middle" x="513.88" y="-84.3" font-family="Arial" font-size="11.00" fill="#34d399">P2G &#45;&gt; Solve</text>
<text xml:space="preserve" text-anchor="middle" x="513.88" y="-70.8" font-family="Arial" font-size="11.00" fill="#34d399">&#45;&gt; G2P</text>
</g>
<!-- consti&#45;&gt;mpm -->
<g id="edge3" class="edge">
<title>consti&#45;&gt;mpm</title>
<path fill="none" stroke="#4a5568" d="M411.59,-88C427.1,-88 445.48,-88 462.3,-88"/>
<polygon fill="#4a5568" stroke="#4a5568" points="462.13,-91.5 472.13,-88 462.13,-84.5 462.13,-91.5"/>
<text xml:space="preserve" text-anchor="middle" x="442.5" y="-100.45" font-family="Arial" font-size="9.00" fill="#8090b0">stress</text>
<text xml:space="preserve" text-anchor="middle" x="442.5" y="-89.95" font-family="Arial" font-size="9.00" fill="#8090b0">tensor</text>
</g>
<!-- defgrad -->
<g id="node5" class="node">
<title>defgrad</title>
<path fill="#4c1d95" stroke="black" stroke-width="0" d="M687.5,-112.25C687.5,-112.25 636.25,-112.25 636.25,-112.25 630.25,-112.25 624.25,-106.25 624.25,-100.25 624.25,-100.25 624.25,-75.75 624.25,-75.75 624.25,-69.75 630.25,-63.75 636.25,-63.75 636.25,-63.75 687.5,-63.75 687.5,-63.75 693.5,-63.75 699.5,-69.75 699.5,-75.75 699.5,-75.75 699.5,-100.25 699.5,-100.25 699.5,-106.25 693.5,-112.25 687.5,-112.25"/>
<text xml:space="preserve" text-anchor="middle" x="661.88" y="-97.8" font-family="Arial" font-size="11.00" fill="#c4b5fd">Deformation</text>
<text xml:space="preserve" text-anchor="middle" x="661.88" y="-84.3" font-family="Arial" font-size="11.00" fill="#c4b5fd">Gradient F</text>
<text xml:space="preserve" text-anchor="middle" x="661.88" y="-70.8" font-family="Arial" font-size="11.00" fill="#c4b5fd">Update x, F</text>
</g>
<!-- mpm&#45;&gt;defgrad -->
<g id="edge4" class="edge">
<title>mpm&#45;&gt;defgrad</title>
<path fill="none" stroke="#4a5568" d="M554.38,-88C572.43,-88 593.96,-88 612.92,-88"/>
<polygon fill="#4a5568" stroke="#4a5568" points="612.83,-91.5 622.83,-88 612.83,-84.5 612.83,-91.5"/>
<text xml:space="preserve" text-anchor="middle" x="589.38" y="-100.45" font-family="Arial" font-size="9.00" fill="#8090b0">updated</text>
<text xml:space="preserve" text-anchor="middle" x="589.38" y="-89.95" font-family="Arial" font-size="9.00" fill="#8090b0">state</text>
</g>
<!-- mean_t -->
<g id="node6" class="node">
<title>mean_t</title>
<path fill="#4c1d95" stroke="black" stroke-width="0" d="M796.88,-160C796.88,-160 763.62,-160 763.62,-160 757.62,-160 751.62,-154 751.62,-148 751.62,-148 751.62,-136 751.62,-136 751.62,-130 757.62,-124 763.62,-124 763.62,-124 796.88,-124 796.88,-124 802.88,-124 808.88,-130 808.88,-136 808.88,-136 808.88,-148 808.88,-148 808.88,-154 802.88,-160 796.88,-160"/>
<text xml:space="preserve" text-anchor="middle" x="780.25" y="-145.05" font-family="Arial" font-size="11.00" fill="#c4b5fd">Mean</text>
<text xml:space="preserve" text-anchor="middle" x="780.25" y="-131.55" font-family="Arial" font-size="11.00" fill="#c4b5fd">x&#39; = F . x</text>
</g>
<!-- defgrad&#45;&gt;mean_t -->
<g id="edge5" class="edge">
<title>defgrad&#45;&gt;mean_t</title>
<path fill="none" stroke="#4a5568" d="M699.38,-104.94C712.74,-111.14 727.88,-118.16 741.36,-124.42"/>
<polygon fill="#4a5568" stroke="#4a5568" points="739.83,-127.57 750.37,-128.6 742.77,-121.22 739.83,-127.57"/>
</g>
<!-- cov_t -->
<g id="node7" class="node">
<title>cov_t</title>
<path fill="#4c1d95" stroke="black" stroke-width="0" d="M806.25,-106C806.25,-106 754.25,-106 754.25,-106 748.25,-106 742.25,-100 742.25,-94 742.25,-94 742.25,-82 742.25,-82 742.25,-76 748.25,-70 754.25,-70 754.25,-70 806.25,-70 806.25,-70 812.25,-70 818.25,-76 818.25,-82 818.25,-82 818.25,-94 818.25,-94 818.25,-100 812.25,-106 806.25,-106"/>
<text xml:space="preserve" text-anchor="middle" x="780.25" y="-91.05" font-family="Arial" font-size="11.00" fill="#c4b5fd">Covariance</text>
<text xml:space="preserve" text-anchor="middle" x="780.25" y="-77.55" font-family="Arial" font-size="11.00" fill="#c4b5fd">S&#39; = F.S.F^T</text>
</g>
<!-- defgrad&#45;&gt;cov_t -->
<g id="edge6" class="edge">
<title>defgrad&#45;&gt;cov_t</title>
<path fill="none" stroke="#4a5568" d="M699.38,-88C709.46,-88 720.56,-88 731.19,-88"/>
<polygon fill="#4a5568" stroke="#4a5568" points="730.96,-91.5 740.96,-88 730.96,-84.5 730.96,-91.5"/>
</g>
<!-- opacity_t -->
<g id="node8" class="node">
<title>opacity_t</title>
<path fill="#4c1d95" stroke="black" stroke-width="0" d="M805.88,-52C805.88,-52 754.62,-52 754.62,-52 748.62,-52 742.62,-46 742.62,-40 742.62,-40 742.62,-28 742.62,-28 742.62,-22 748.62,-16 754.62,-16 754.62,-16 805.88,-16 805.88,-16 811.88,-16 817.88,-22 817.88,-28 817.88,-28 817.88,-40 817.88,-40 817.88,-46 811.88,-52 805.88,-52"/>
<text xml:space="preserve" text-anchor="middle" x="780.25" y="-37.05" font-family="Arial" font-size="11.00" fill="#c4b5fd">Opacity</text>
<text xml:space="preserve" text-anchor="middle" x="780.25" y="-23.55" font-family="Arial" font-size="11.00" fill="#c4b5fd">o&#39; = o/det(F)</text>
</g>
<!-- defgrad&#45;&gt;opacity_t -->
<g id="edge7" class="edge">
<title>defgrad&#45;&gt;opacity_t</title>
<path fill="none" stroke="#4a5568" d="M699.38,-71.06C709.88,-66.19 721.49,-60.8 732.53,-55.68"/>
<polygon fill="#4a5568" stroke="#4a5568" points="733.91,-58.9 741.5,-51.51 730.96,-52.55 733.91,-58.9"/>
</g>
<!-- render -->
<g id="node9" class="node">
<title>render</title>
<path fill="#92400e" stroke="black" stroke-width="0" d="M947.75,-112.25C947.75,-112.25 874,-112.25 874,-112.25 868,-112.25 862,-106.25 862,-100.25 862,-100.25 862,-75.75 862,-75.75 862,-69.75 868,-63.75 874,-63.75 874,-63.75 947.75,-63.75 947.75,-63.75 953.75,-63.75 959.75,-69.75 959.75,-75.75 959.75,-75.75 959.75,-100.25 959.75,-100.25 959.75,-106.25 953.75,-112.25 947.75,-112.25"/>
<text xml:space="preserve" text-anchor="middle" x="910.88" y="-97.8" font-family="Arial" font-size="11.00" fill="#fbbf24">Render</text>
<text xml:space="preserve" text-anchor="middle" x="910.88" y="-84.3" font-family="Arial" font-size="11.00" fill="#fbbf24">Deformed Scene</text>
<text xml:space="preserve" text-anchor="middle" x="910.88" y="-70.8" font-family="Arial" font-size="11.00" fill="#fbbf24">(Real&#45;time)</text>
</g>
<!-- mean_t&#45;&gt;render -->
<g id="edge8" class="edge">
<title>mean_t&#45;&gt;render</title>
<path fill="none" stroke="#4a5568" d="M808.84,-130.42C821.44,-125.13 836.86,-118.65 851.82,-112.37"/>
<polygon fill="#4a5568" stroke="#4a5568" points="852.81,-115.75 860.67,-108.66 850.1,-109.3 852.81,-115.75"/>
</g>
<!-- cov_t&#45;&gt;render -->
<g id="edge9" class="edge">
<title>cov_t&#45;&gt;render</title>
<path fill="none" stroke="#4a5568" d="M818.11,-88C828.36,-88 839.75,-88 850.92,-88"/>
<polygon fill="#4a5568" stroke="#4a5568" points="850.92,-91.5 860.92,-88 850.92,-84.5 850.92,-91.5"/>
</g>
<!-- opacity_t&#45;&gt;render -->
<g id="edge10" class="edge">
<title>opacity_t&#45;&gt;render</title>
<path fill="none" stroke="#4a5568" d="M817.76,-49.33C828.34,-53.77 840.16,-58.73 851.71,-63.58"/>
<polygon fill="#4a5568" stroke="#4a5568" points="850.23,-66.76 860.81,-67.4 852.94,-60.3 850.23,-66.76"/>
</g>
<!-- materials -->
<g id="node10" class="node">
<title>materials</title>
<polygon fill="#1f2937" stroke="black" stroke-width="0" points="262.25,-96.25 177.25,-96.25 177.25,-47.75 268.25,-47.75 268.25,-90.25 262.25,-96.25"/>
<polyline fill="none" stroke="black" stroke-width="0" points="262.25,-96.25 262.25,-90.25"/>
<polyline fill="none" stroke="black" stroke-width="0" points="268.25,-90.25 262.25,-90.25"/>
<text xml:space="preserve" text-anchor="middle" x="222.75" y="-81.8" font-family="Arial" font-size="11.00" fill="#6b7280">Neo&#45;Hookean</text>
<text xml:space="preserve" text-anchor="middle" x="222.75" y="-68.3" font-family="Arial" font-size="11.00" fill="#6b7280">Drucker&#45;Prager</text>
<text xml:space="preserve" text-anchor="middle" x="222.75" y="-54.8" font-family="Arial" font-size="11.00" fill="#6b7280">Viscous Fluid</text>
</g>
<!-- materials&#45;&gt;consti -->
<g id="edge11" class="edge">
<title>materials&#45;&gt;consti</title>
<path fill="none" stroke="#4a5568" stroke-dasharray="1,5" d="M267.87,-76.71C290.13,-79.09 316.78,-81.94 337.74,-84.18"/>
</g>
</g>
</svg>
