<?xml version="1.0" encoding="UTF-8" standalone="no"?>
<!DOCTYPE svg PUBLIC "-//W3C//DTD SVG 1.1//EN"
 "http://www.w3.org/Graphics/SVG/1.1/DTD/svg11.dtd">
<!-- Generated by graphviz version 14.1.3 (20260303.0454)
 -->
<!-- Title: PhysDreamer Pages: 1 -->
<svg width="1107pt" height="186pt"
 viewBox="0.00 0.00 1107.00 186.00" xmlns="http://www.w3.org/2000/svg" xmlns:xlink="http://www.w3.org/1999/xlink">
<g id="graph0" class="graph" transform="scale(1 1) rotate(0) translate(4 181.75)">
<title>PhysDreamer</title>
<g id="clust1" class="cluster">
<title>cluster_svd</title>
<path fill="#1a0533" stroke="#6d28d9" stroke-width="1.5" stroke-dasharray="5,2" d="M20,-19C20,-19 243.12,-19 243.12,-19 249.12,-19 255.12,-25 255.12,-31 255.12,-31 255.12,-82 255.12,-82 255.12,-88 249.12,-94 243.12,-94 243.12,-94 20,-94 20,-94 14,-94 8,-88 8,-82 8,-82 8,-31 8,-31 8,-25 14,-19 20,-19"/>
<text xml:space="preserve" text-anchor="middle" x="131.56" y="-80.5" font-family="Arial" font-size="10.00" fill="#c4b5fd">Video Diffusion Prior</text>
</g>
<!-- static_gs -->
<g id="node1" class="node">
<title>static_gs</title>
<path fill="#92400e" stroke="black" stroke-width="0" d="M558.88,-89.25C558.88,-89.25 488.88,-89.25 488.88,-89.25 482.88,-89.25 476.88,-83.25 476.88,-77.25 476.88,-77.25 476.88,-52.75 476.88,-52.75 476.88,-46.75 482.88,-40.75 488.88,-40.75 488.88,-40.75 558.88,-40.75 558.88,-40.75 564.88,-40.75 570.88,-46.75 570.88,-52.75 570.88,-52.75 570.88,-77.25 570.88,-77.25 570.88,-83.25 564.88,-89.25 558.88,-89.25"/>
<text xml:space="preserve" text-anchor="middle" x="523.88" y="-74.8" font-family="Arial" font-size="11.00" fill="#fbbf24">Static 3DGS</text>
<text xml:space="preserve" text-anchor="middle" x="523.88" y="-61.3" font-family="Arial" font-size="11.00" fill="#fbbf24">(No deformation</text>
<text xml:space="preserve" text-anchor="middle" x="523.88" y="-47.8" font-family="Arial" font-size="11.00" fill="#fbbf24">video needed)</text>
</g>
<!-- material -->
<g id="node2" class="node">
<title>material</title>
<path fill="#065f46" stroke="black" stroke-width="0" d="M740.25,-83C740.25,-83 674.75,-83 674.75,-83 668.75,-83 662.75,-77 662.75,-71 662.75,-71 662.75,-59 662.75,-59 662.75,-53 668.75,-47 674.75,-47 674.75,-47 740.25,-47 740.25,-47 746.25,-47 752.25,-53 752.25,-59 752.25,-59 752.25,-71 752.25,-71 752.25,-77 746.25,-83 740.25,-83"/>
<text xml:space="preserve" text-anchor="middle" x="707.5" y="-68.05" font-family="Arial" font-size="11.00" fill="#34d399">Assign Material</text>
<text xml:space="preserve" text-anchor="middle" x="707.5" y="-54.55" font-family="Arial" font-size="11.00" fill="#34d399">Field (theta)</text>
</g>
<!-- static_gs&#45;&gt;material -->
<g id="edge2" class="edge">
<title>static_gs&#45;&gt;material</title>
<path fill="none" stroke="#4a5568" d="M570.71,-65C595.22,-65 625.59,-65 651.38,-65"/>
<polygon fill="#4a5568" stroke="#4a5568" points="651.36,-68.5 661.36,-65 651.36,-61.5 651.36,-68.5"/>
<text xml:space="preserve" text-anchor="middle" x="617" y="-77.45" font-family="Arial" font-size="9.00" fill="#8090b0">assign</text>
<text xml:space="preserve" text-anchor="middle" x="617" y="-66.95" font-family="Arial" font-size="9.00" fill="#8090b0">per&#45;Gaussian</text>
</g>
<!-- mpm -->
<g id="node3" class="node">
<title>mpm</title>
<path fill="#065f46" stroke="black" stroke-width="0" d="M925,-81.25C925,-81.25 853.5,-81.25 853.5,-81.25 847.5,-81.25 841.5,-75.25 841.5,-69.25 841.5,-69.25 841.5,-44.75 841.5,-44.75 841.5,-38.75 847.5,-32.75 853.5,-32.75 853.5,-32.75 925,-32.75 925,-32.75 931,-32.75 937,-38.75 937,-44.75 937,-44.75 937,-69.25 937,-69.25 937,-75.25 931,-81.25 925,-81.25"/>
<text xml:space="preserve" text-anchor="middle" x="889.25" y="-66.8" font-family="Arial" font-size="11.00" fill="#34d399">Differentiable</text>
<text xml:space="preserve" text-anchor="middle" x="889.25" y="-53.3" font-family="Arial" font-size="11.00" fill="#34d399">MPM Simulation</text>
<text xml:space="preserve" text-anchor="middle" x="889.25" y="-39.8" font-family="Arial" font-size="11.00" fill="#34d399">(Random Force)</text>
</g>
<!-- material&#45;&gt;mpm -->
<g id="edge3" class="edge">
<title>material&#45;&gt;mpm</title>
<path fill="none" stroke="#4a5568" d="M752.01,-63.06C775.53,-62.02 804.88,-60.71 830.31,-59.58"/>
<polygon fill="#4a5568" stroke="#4a5568" points="830.33,-63.08 840.17,-59.14 830.02,-56.09 830.33,-63.08"/>
<text xml:space="preserve" text-anchor="middle" x="796.88" y="-64.13" font-family="Arial" font-size="9.00" fill="#8090b0">params theta</text>
</g>
<!-- render -->
<g id="node4" class="node">
<title>render</title>
<path fill="#1e3a5f" stroke="black" stroke-width="0" d="M1087.25,-36C1087.25,-36 1028.5,-36 1028.5,-36 1022.5,-36 1016.5,-30 1016.5,-24 1016.5,-24 1016.5,-12 1016.5,-12 1016.5,-6 1022.5,0 1028.5,0 1028.5,0 1087.25,0 1087.25,0 1093.25,0 1099.25,-6 1099.25,-12 1099.25,-12 1099.25,-24 1099.25,-24 1099.25,-30 1093.25,-36 1087.25,-36"/>
<text xml:space="preserve" text-anchor="middle" x="1057.88" y="-21.05" font-family="Arial" font-size="11.00" fill="#60a5fa">Render Video</text>
<text xml:space="preserve" text-anchor="middle" x="1057.88" y="-7.55" font-family="Arial" font-size="11.00" fill="#60a5fa">via 3DGS</text>
</g>
<!-- mpm&#45;&gt;render -->
<g id="edge4" class="edge">
<title>mpm&#45;&gt;render</title>
<path fill="none" stroke="#4a5568" d="M936.66,-46.14C958.07,-41.13 983.54,-35.16 1005.52,-30.02"/>
<polygon fill="#4a5568" stroke="#4a5568" points="1006.24,-33.45 1015.18,-27.76 1004.64,-26.63 1006.24,-33.45"/>
<text xml:space="preserve" text-anchor="middle" x="976.75" y="-53.44" font-family="Arial" font-size="9.00" fill="#8090b0">deformed</text>
<text xml:space="preserve" text-anchor="middle" x="976.75" y="-42.94" font-family="Arial" font-size="9.00" fill="#8090b0">Gaussians</text>
</g>
<!-- add_noise -->
<g id="node5" class="node">
<title>add_noise</title>
<path fill="#312e81" stroke="black" stroke-width="0" d="M80,-63C80,-63 28,-63 28,-63 22,-63 16,-57 16,-51 16,-51 16,-39 16,-39 16,-33 22,-27 28,-27 28,-27 80,-27 80,-27 86,-27 92,-33 92,-39 92,-39 92,-51 92,-51 92,-57 86,-63 80,-63"/>
<text xml:space="preserve" text-anchor="middle" x="54" y="-48.05" font-family="Arial" font-size="11.00" fill="#a78bfa">Add Noise</text>
<text xml:space="preserve" text-anchor="middle" x="54" y="-34.55" font-family="Arial" font-size="11.00" fill="#a78bfa">to Rendered</text>
</g>
<!-- render&#45;&gt;add_noise -->
<g id="edge5" class="edge">
<title>render&#45;&gt;add_noise</title>
<path fill="none" stroke="#4a5568" d="M1016.57,-11.95C982.89,-7.42 933.55,-2 890.25,-2 201.38,-2 201.38,-2 201.38,-2 167.2,-2 130.3,-12.92 102.09,-23.76"/>
<polygon fill="#4a5568" stroke="#4a5568" points="101.13,-20.37 93.14,-27.32 103.72,-26.87 101.13,-20.37"/>
<text xml:space="preserve" text-anchor="middle" x="523.88" y="-14.45" font-family="Arial" font-size="9.00" fill="#8090b0">predicted</text>
<text xml:space="preserve" text-anchor="middle" x="523.88" y="-3.95" font-family="Arial" font-size="9.00" fill="#8090b0">video</text>
</g>
<!-- svd -->
<g id="node6" class="node">
<title>svd</title>
<path fill="#4c1d95" stroke="black" stroke-width="0" d="M235.12,-66C235.12,-66 169.62,-66 169.62,-66 163.62,-66 157.62,-60 157.62,-54 157.62,-54 157.62,-42 157.62,-42 157.62,-36 163.62,-30 169.62,-30 169.62,-30 235.12,-30 235.12,-30 241.12,-30 247.12,-36 247.12,-42 247.12,-42 247.12,-54 247.12,-54 247.12,-60 241.12,-66 235.12,-66"/>
<text xml:space="preserve" text-anchor="middle" x="202.38" y="-51.05" font-family="Arial" font-size="11.00" fill="#c4b5fd">SVD Denoise</text>
<text xml:space="preserve" text-anchor="middle" x="202.38" y="-37.55" font-family="Arial" font-size="11.00" fill="#c4b5fd">(Frozen Model)</text>
</g>
<!-- add_noise&#45;&gt;svd -->
<g id="edge1" class="edge">
<title>add_noise&#45;&gt;svd</title>
<path fill="none" stroke="#4a5568" d="M91.94,-45.76C108.41,-46.09 128.16,-46.5 146.32,-46.87"/>
<polygon fill="#4a5568" stroke="#4a5568" points="146.1,-50.37 156.17,-47.07 146.24,-43.37 146.1,-50.37"/>
<text xml:space="preserve" text-anchor="middle" x="123.88" y="-59.13" font-family="Arial" font-size="9.00" fill="#8090b0">noised</text>
<text xml:space="preserve" text-anchor="middle" x="123.88" y="-48.63" font-family="Arial" font-size="9.00" fill="#8090b0">frames</text>
</g>
<!-- sds -->
<g id="node7" class="node">
<title>sds</title>
<path fill="#4c1d95" stroke="black" stroke-width="0" d="M394.75,-143C394.75,-143 337.5,-143 337.5,-143 331.5,-143 325.5,-137 325.5,-131 325.5,-131 325.5,-119 325.5,-119 325.5,-113 331.5,-107 337.5,-107 337.5,-107 394.75,-107 394.75,-107 400.75,-107 406.75,-113 406.75,-119 406.75,-119 406.75,-131 406.75,-131 406.75,-137 400.75,-143 394.75,-143"/>
<text xml:space="preserve" text-anchor="middle" x="366.12" y="-128.05" font-family="Arial" font-size="11.00" fill="#c4b5fd">SDS Loss</text>
<text xml:space="preserve" text-anchor="middle" x="366.12" y="-114.55" font-family="Arial" font-size="11.00" fill="#c4b5fd">eps_hat &#45; eps</text>
</g>
<!-- svd&#45;&gt;sds -->
<g id="edge6" class="edge">
<title>svd&#45;&gt;sds</title>
<path fill="none" stroke="#4a5568" d="M240.89,-65.86C263.67,-76.7 292.97,-90.65 317.4,-102.28"/>
<polygon fill="#4a5568" stroke="#4a5568" points="315.63,-105.32 326.17,-106.45 318.64,-99 315.63,-105.32"/>
<text xml:space="preserve" text-anchor="middle" x="287.25" y="-108.11" font-family="Arial" font-size="9.00" fill="#8090b0">denoising</text>
<text xml:space="preserve" text-anchor="middle" x="287.25" y="-97.61" font-family="Arial" font-size="9.00" fill="#8090b0">direction</text>
</g>
<!-- backprop -->
<g id="node8" class="node">
<title>backprop</title>
<path fill="#4c1d95" stroke="black" stroke-width="0" d="M559.25,-143C559.25,-143 488.5,-143 488.5,-143 482.5,-143 476.5,-137 476.5,-131 476.5,-131 476.5,-119 476.5,-119 476.5,-113 482.5,-107 488.5,-107 488.5,-107 559.25,-107 559.25,-107 565.25,-107 571.25,-113 571.25,-119 571.25,-119 571.25,-131 571.25,-131 571.25,-137 565.25,-143 559.25,-143"/>
<text xml:space="preserve" text-anchor="middle" x="523.88" y="-128.05" font-family="Arial" font-size="11.00" fill="#c4b5fd">Backprop to</text>
<text xml:space="preserve" text-anchor="middle" x="523.88" y="-114.55" font-family="Arial" font-size="11.00" fill="#c4b5fd">Material Params</text>
</g>
<!-- sds&#45;&gt;backprop -->
<g id="edge7" class="edge">
<title>sds&#45;&gt;backprop</title>
<path fill="none" stroke="#ef4444" d="M406.43,-125C424.28,-125 445.75,-125 465.37,-125"/>
<polygon fill="#ef4444" stroke="#ef4444" points="465.15,-128.5 475.15,-125 465.15,-121.5 465.15,-128.5"/>
<text xml:space="preserve" text-anchor="middle" x="441.62" y="-137.45" font-family="Arial" font-size="9.00" fill="#ef4444">gradient</text>
<text xml:space="preserve" text-anchor="middle" x="441.62" y="-126.95" font-family="Arial" font-size="9.00" fill="#ef4444">signal</text>
</g>
<!-- backprop&#45;&gt;material -->
<g id="edge8" class="edge">
<title>backprop&#45;&gt;material</title>
<path fill="none" stroke="#ef4444" stroke-dasharray="5,2" d="M571.04,-112.69C593.46,-106.42 620.69,-98.36 644.75,-90 647.57,-89.02 650.45,-87.98 653.35,-86.91"/>
<polygon fill="#ef4444" stroke="#ef4444" points="654.34,-90.28 662.44,-83.45 651.85,-83.74 654.34,-90.28"/>
<text xml:space="preserve" text-anchor="middle" x="617" y="-119.93" font-family="Arial" font-size="9.00" fill="#ef4444">update theta</text>
<text xml:space="preserve" text-anchor="middle" x="617" y="-109.43" font-family="Arial" font-size="9.00" fill="#ef4444">iterate</text>
</g>
<!-- insight -->
<g id="node9" class="node">
<title>insight</title>
<polygon fill="#1f2937" stroke="black" stroke-width="0" points="243,-177.75 155.75,-177.75 155.75,-102.25 249,-102.25 249,-171.75 243,-177.75"/>
<polyline fill="none" stroke="black" stroke-width="0" points="243,-177.75 243,-171.75"/>
<polyline fill="none" stroke="black" stroke-width="0" points="249,-171.75 243,-171.75"/>
<text xml:space="preserve" text-anchor="middle" x="202.38" y="-163.3" font-family="Arial" font-size="11.00" fill="#6b7280">Key Insight:</text>
<text xml:space="preserve" text-anchor="middle" x="202.38" y="-149.8" font-family="Arial" font-size="11.00" fill="#6b7280">No ground&#45;truth</text>
<text xml:space="preserve" text-anchor="middle" x="202.38" y="-136.3" font-family="Arial" font-size="11.00" fill="#6b7280">physics needed!</text>
<text xml:space="preserve" text-anchor="middle" x="202.38" y="-122.8" font-family="Arial" font-size="11.00" fill="#6b7280">Video diffusion</text>
<text xml:space="preserve" text-anchor="middle" x="202.38" y="-109.3" font-family="Arial" font-size="11.00" fill="#6b7280">IS the prior</text>
</g>
<!-- insight&#45;&gt;sds -->
<g id="edge9" class="edge">
<title>insight&#45;&gt;sds</title>
<path fill="none" stroke="#4a5568" stroke-dasharray="1,5" d="M248.86,-135.78C273.06,-133.54 302.53,-130.8 325.74,-128.65"/>
</g>
</g>
</svg>
