<?xml version="1.0" encoding="UTF-8" standalone="no"?>
<!DOCTYPE svg PUBLIC "-//W3C//DTD SVG 1.1//EN"
 "http://www.w3.org/Graphics/SVG/1.1/DTD/svg11.dtd">
<!-- Generated by graphviz version 14.1.3 (20260303.0454)
 -->
<!-- Title: PhysiX Pages: 1 -->
<svg width="1339pt" height="138pt"
 viewBox="0.00 0.00 1339.00 138.00" xmlns="http://www.w3.org/2000/svg" xmlns:xlink="http://www.w3.org/1999/xlink">
<g id="graph0" class="graph" transform="scale(1 1) rotate(0) translate(4 134)">
<title>PhysiX</title>
<g id="clust1" class="cluster">
<title>cluster_vqvae</title>
<path fill="#1a0533" stroke="#6d28d9" stroke-width="1.5" stroke-dasharray="5,2" d="M301.5,-47C301.5,-47 502.5,-47 502.5,-47 508.5,-47 514.5,-53 514.5,-59 514.5,-59 514.5,-110 514.5,-110 514.5,-116 508.5,-122 502.5,-122 502.5,-122 301.5,-122 301.5,-122 295.5,-122 289.5,-116 289.5,-110 289.5,-110 289.5,-59 289.5,-59 289.5,-53 295.5,-47 301.5,-47"/>
<text xml:space="preserve" text-anchor="middle" x="402" y="-108.5" font-family="Arial" font-size="10.00" fill="#c4b5fd">VQ&#45;VAE Tokenizer</text>
</g>
<g id="clust2" class="cluster">
<title>cluster_gpt</title>
<path fill="#0c1929" stroke="#1e40af" stroke-width="1.5" stroke-dasharray="5,2" d="M747.75,-8C747.75,-8 984.75,-8 984.75,-8 990.75,-8 996.75,-14 996.75,-20 996.75,-20 996.75,-80 996.75,-80 996.75,-86 990.75,-92 984.75,-92 984.75,-92 747.75,-92 747.75,-92 741.75,-92 735.75,-86 735.75,-80 735.75,-80 735.75,-20 735.75,-20 735.75,-14 741.75,-8 747.75,-8"/>
<text xml:space="preserve" text-anchor="middle" x="866.25" y="-78.5" font-family="Arial" font-size="10.00" fill="#60a5fa">GPT&#45;Style Transformer</text>
</g>
<!-- field -->
<g id="node1" class="node">
<title>field</title>
<path fill="#92400e" stroke="black" stroke-width="0" d="M70,-91C70,-91 12,-91 12,-91 6,-91 0,-85 0,-79 0,-79 0,-67 0,-67 0,-61 6,-55 12,-55 12,-55 70,-55 70,-55 76,-55 82,-61 82,-67 82,-67 82,-79 82,-79 82,-85 76,-91 70,-91"/>
<text xml:space="preserve" text-anchor="middle" x="41" y="-76.05" font-family="Arial" font-size="11.00" fill="#fbbf24">Physical Field</text>
<text xml:space="preserve" text-anchor="middle" x="41" y="-62.55" font-family="Arial" font-size="11.00" fill="#fbbf24">u(x, t)</text>
</g>
<!-- patches -->
<g id="node2" class="node">
<title>patches</title>
<path fill="#065f46" stroke="black" stroke-width="0" d="M211.25,-91C211.25,-91 169,-91 169,-91 163,-91 157,-85 157,-79 157,-79 157,-67 157,-67 157,-61 163,-55 169,-55 169,-55 211.25,-55 211.25,-55 217.25,-55 223.25,-61 223.25,-67 223.25,-67 223.25,-79 223.25,-79 223.25,-85 217.25,-91 211.25,-91"/>
<text xml:space="preserve" text-anchor="middle" x="190.12" y="-76.05" font-family="Arial" font-size="11.00" fill="#34d399">Divide into</text>
<text xml:space="preserve" text-anchor="middle" x="190.12" y="-62.55" font-family="Arial" font-size="11.00" fill="#34d399">Patches</text>
</g>
<!-- field&#45;&gt;patches -->
<g id="edge3" class="edge">
<title>field&#45;&gt;patches</title>
<path fill="none" stroke="#4a5568" d="M81.81,-73C101.59,-73 125.52,-73 145.76,-73"/>
<polygon fill="#4a5568" stroke="#4a5568" points="145.68,-76.5 155.68,-73 145.68,-69.5 145.68,-76.5"/>
<text xml:space="preserve" text-anchor="middle" x="119.5" y="-85.45" font-family="Arial" font-size="9.00" fill="#8090b0">spatial</text>
<text xml:space="preserve" text-anchor="middle" x="119.5" y="-74.95" font-family="Arial" font-size="9.00" fill="#8090b0">discretize</text>
</g>
<!-- encode_vq -->
<g id="node3" class="node">
<title>encode_vq</title>
<path fill="#312e81" stroke="black" stroke-width="0" d="M356.25,-91C356.25,-91 309.5,-91 309.5,-91 303.5,-91 297.5,-85 297.5,-79 297.5,-79 297.5,-67 297.5,-67 297.5,-61 303.5,-55 309.5,-55 309.5,-55 356.25,-55 356.25,-55 362.25,-55 368.25,-61 368.25,-67 368.25,-67 368.25,-79 368.25,-79 368.25,-85 362.25,-91 356.25,-91"/>
<text xml:space="preserve" text-anchor="middle" x="332.88" y="-76.05" font-family="Arial" font-size="11.00" fill="#a78bfa">Encoder</text>
<text xml:space="preserve" text-anchor="middle" x="332.88" y="-62.55" font-family="Arial" font-size="11.00" fill="#a78bfa">Continuous</text>
</g>
<!-- patches&#45;&gt;encode_vq -->
<g id="edge4" class="edge">
<title>patches&#45;&gt;encode_vq</title>
<path fill="none" stroke="#4a5568" d="M223.06,-73C241.73,-73 265.59,-73 286.22,-73"/>
<polygon fill="#4a5568" stroke="#4a5568" points="286.09,-76.5 296.09,-73 286.09,-69.5 286.09,-76.5"/>
<text xml:space="preserve" text-anchor="middle" x="260.38" y="-74.95" font-family="Arial" font-size="9.00" fill="#8090b0">per patch</text>
</g>
<!-- codebook -->
<g id="node4" class="node">
<title>codebook</title>
<path fill="#4c1d95" stroke="black" stroke-width="0" d="M494.5,-91C494.5,-91 453,-91 453,-91 447,-91 441,-85 441,-79 441,-79 441,-67 441,-67 441,-61 447,-55 453,-55 453,-55 494.5,-55 494.5,-55 500.5,-55 506.5,-61 506.5,-67 506.5,-67 506.5,-79 506.5,-79 506.5,-85 500.5,-91 494.5,-91"/>
<text xml:space="preserve" text-anchor="middle" x="473.75" y="-76.05" font-family="Arial" font-size="11.00" fill="#c4b5fd">Codebook</text>
<text xml:space="preserve" text-anchor="middle" x="473.75" y="-62.55" font-family="Arial" font-size="11.00" fill="#c4b5fd">Quantize</text>
</g>
<!-- encode_vq&#45;&gt;codebook -->
<g id="edge1" class="edge">
<title>encode_vq&#45;&gt;codebook</title>
<path fill="none" stroke="#4a5568" d="M368.2,-73C386.78,-73 409.91,-73 429.69,-73"/>
<polygon fill="#4a5568" stroke="#4a5568" points="429.68,-76.5 439.68,-73 429.68,-69.5 429.68,-76.5"/>
<text xml:space="preserve" text-anchor="middle" x="404.62" y="-85.45" font-family="Arial" font-size="9.00" fill="#8090b0">nearest</text>
<text xml:space="preserve" text-anchor="middle" x="404.62" y="-74.95" font-family="Arial" font-size="9.00" fill="#8090b0">neighbor</text>
</g>
<!-- tokens -->
<g id="node5" class="node">
<title>tokens</title>
<path fill="#4c1d95" stroke="black" stroke-width="0" d="M655.25,-91C655.25,-91 586.75,-91 586.75,-91 580.75,-91 574.75,-85 574.75,-79 574.75,-79 574.75,-67 574.75,-67 574.75,-61 580.75,-55 586.75,-55 586.75,-55 655.25,-55 655.25,-55 661.25,-55 667.25,-61 667.25,-67 667.25,-67 667.25,-79 667.25,-79 667.25,-85 661.25,-91 655.25,-91"/>
<text xml:space="preserve" text-anchor="middle" x="621" y="-76.05" font-family="Arial" font-size="11.00" fill="#c4b5fd">Discrete Tokens</text>
<text xml:space="preserve" text-anchor="middle" x="621" y="-62.55" font-family="Arial" font-size="11.00" fill="#c4b5fd">81M tokens</text>
</g>
<!-- codebook&#45;&gt;tokens -->
<g id="edge5" class="edge">
<title>codebook&#45;&gt;tokens</title>
<path fill="none" stroke="#4a5568" d="M506.27,-73C522.93,-73 543.89,-73 563.27,-73"/>
<polygon fill="#4a5568" stroke="#4a5568" points="563.25,-76.5 573.25,-73 563.25,-69.5 563.25,-76.5"/>
<text xml:space="preserve" text-anchor="middle" x="540.62" y="-85.45" font-family="Arial" font-size="9.00" fill="#8090b0">discrete</text>
<text xml:space="preserve" text-anchor="middle" x="540.62" y="-74.95" font-family="Arial" font-size="9.00" fill="#8090b0">IDs</text>
</g>
<!-- causal -->
<g id="node6" class="node">
<title>causal</title>
<path fill="#1e3a5f" stroke="black" stroke-width="0" d="M809.25,-64.25C809.25,-64.25 755.75,-64.25 755.75,-64.25 749.75,-64.25 743.75,-58.25 743.75,-52.25 743.75,-52.25 743.75,-27.75 743.75,-27.75 743.75,-21.75 749.75,-15.75 755.75,-15.75 755.75,-15.75 809.25,-15.75 809.25,-15.75 815.25,-15.75 821.25,-21.75 821.25,-27.75 821.25,-27.75 821.25,-52.25 821.25,-52.25 821.25,-58.25 815.25,-64.25 809.25,-64.25"/>
<text xml:space="preserve" text-anchor="middle" x="782.5" y="-49.8" font-family="Arial" font-size="11.00" fill="#60a5fa">Causal</text>
<text xml:space="preserve" text-anchor="middle" x="782.5" y="-36.3" font-family="Arial" font-size="11.00" fill="#60a5fa">Attention</text>
<text xml:space="preserve" text-anchor="middle" x="782.5" y="-22.8" font-family="Arial" font-size="11.00" fill="#60a5fa">4.5B params</text>
</g>
<!-- tokens&#45;&gt;causal -->
<g id="edge6" class="edge">
<title>tokens&#45;&gt;causal</title>
<path fill="none" stroke="#4a5568" d="M666.85,-63.72C687.38,-59.47 711.74,-54.43 732.72,-50.09"/>
<polygon fill="#4a5568" stroke="#4a5568" points="733.42,-53.52 742.5,-48.07 732,-46.67 733.42,-53.52"/>
<text xml:space="preserve" text-anchor="middle" x="705.5" y="-71.91" font-family="Arial" font-size="9.00" fill="#8090b0">token</text>
<text xml:space="preserve" text-anchor="middle" x="705.5" y="-61.41" font-family="Arial" font-size="9.00" fill="#8090b0">sequence</text>
</g>
<!-- predict -->
<g id="node7" class="node">
<title>predict</title>
<path fill="#1e3a5f" stroke="black" stroke-width="0" d="M976.75,-58C976.75,-58 930,-58 930,-58 924,-58 918,-52 918,-46 918,-46 918,-34 918,-34 918,-28 924,-22 930,-22 930,-22 976.75,-22 976.75,-22 982.75,-22 988.75,-28 988.75,-34 988.75,-34 988.75,-46 988.75,-46 988.75,-52 982.75,-58 976.75,-58"/>
<text xml:space="preserve" text-anchor="middle" x="953.38" y="-43.05" font-family="Arial" font-size="11.00" fill="#60a5fa">Next&#45;Token</text>
<text xml:space="preserve" text-anchor="middle" x="953.38" y="-29.55" font-family="Arial" font-size="11.00" fill="#60a5fa">Prediction</text>
</g>
<!-- causal&#45;&gt;predict -->
<g id="edge2" class="edge">
<title>causal&#45;&gt;predict</title>
<path fill="none" stroke="#4a5568" d="M820.98,-40C846.29,-40 879.85,-40 906.72,-40"/>
<polygon fill="#4a5568" stroke="#4a5568" points="906.65,-43.5 916.65,-40 906.65,-36.5 906.65,-43.5"/>
<text xml:space="preserve" text-anchor="middle" x="869.62" y="-41.95" font-family="Arial" font-size="9.00" fill="#8090b0">autoregressive</text>
</g>
<!-- detok -->
<g id="node8" class="node">
<title>detok</title>
<path fill="#4c1d95" stroke="black" stroke-width="0" d="M1152.5,-58C1152.5,-58 1075,-58 1075,-58 1069,-58 1063,-52 1063,-46 1063,-46 1063,-34 1063,-34 1063,-28 1069,-22 1075,-22 1075,-22 1152.5,-22 1152.5,-22 1158.5,-22 1164.5,-28 1164.5,-34 1164.5,-34 1164.5,-46 1164.5,-46 1164.5,-52 1158.5,-58 1152.5,-58"/>
<text xml:space="preserve" text-anchor="middle" x="1113.75" y="-43.05" font-family="Arial" font-size="11.00" fill="#c4b5fd">De&#45;Tokenize</text>
<text xml:space="preserve" text-anchor="middle" x="1113.75" y="-29.55" font-family="Arial" font-size="11.00" fill="#c4b5fd">VQ&#45;VAE Decoder</text>
</g>
<!-- predict&#45;&gt;detok -->
<g id="edge7" class="edge">
<title>predict&#45;&gt;detok</title>
<path fill="none" stroke="#4a5568" d="M988.74,-40C1007.17,-40 1030.43,-40 1051.81,-40"/>
<polygon fill="#4a5568" stroke="#4a5568" points="1051.61,-43.5 1061.61,-40 1051.61,-36.5 1051.61,-43.5"/>
<text xml:space="preserve" text-anchor="middle" x="1025.88" y="-52.45" font-family="Arial" font-size="9.00" fill="#8090b0">predicted</text>
<text xml:space="preserve" text-anchor="middle" x="1025.88" y="-41.95" font-family="Arial" font-size="9.00" fill="#8090b0">tokens</text>
</g>
<!-- next_field -->
<g id="node9" class="node">
<title>next_field</title>
<path fill="#92400e" stroke="black" stroke-width="0" d="M1318.5,-58C1318.5,-58 1257.5,-58 1257.5,-58 1251.5,-58 1245.5,-52 1245.5,-46 1245.5,-46 1245.5,-34 1245.5,-34 1245.5,-28 1251.5,-22 1257.5,-22 1257.5,-22 1318.5,-22 1318.5,-22 1324.5,-22 1330.5,-28 1330.5,-34 1330.5,-34 1330.5,-46 1330.5,-46 1330.5,-52 1324.5,-58 1318.5,-58"/>
<text xml:space="preserve" text-anchor="middle" x="1288" y="-43.05" font-family="Arial" font-size="11.00" fill="#fbbf24">Next Timestep</text>
<text xml:space="preserve" text-anchor="middle" x="1288" y="-29.55" font-family="Arial" font-size="11.00" fill="#fbbf24">u(x, t+dt)</text>
</g>
<!-- detok&#45;&gt;next_field -->
<g id="edge8" class="edge">
<title>detok&#45;&gt;next_field</title>
<path fill="none" stroke="#4a5568" d="M1164.11,-40C1186.12,-40 1212.08,-40 1234.45,-40"/>
<polygon fill="#4a5568" stroke="#4a5568" points="1234.27,-43.5 1244.27,-40 1234.27,-36.5 1234.27,-43.5"/>
<text xml:space="preserve" text-anchor="middle" x="1205" y="-41.95" font-family="Arial" font-size="9.00" fill="#8090b0">reconstruct</text>
</g>
<!-- scale -->
<g id="node10" class="node">
<title>scale</title>
<polygon fill="#1f2937" stroke="black" stroke-width="0" points="653.75,-37 582.25,-37 582.25,-1 659.75,-1 659.75,-31 653.75,-37"/>
<polyline fill="none" stroke="black" stroke-width="0" points="653.75,-37 653.75,-31"/>
<polyline fill="none" stroke="black" stroke-width="0" points="659.75,-31 653.75,-31"/>
<text xml:space="preserve" text-anchor="middle" x="621" y="-22.05" font-family="Arial" font-size="11.00" fill="#6b7280">4.5B params</text>
<text xml:space="preserve" text-anchor="middle" x="621" y="-8.55" font-family="Arial" font-size="11.00" fill="#6b7280">81M tokens</text>
</g>
<!-- scale&#45;&gt;causal -->
<g id="edge9" class="edge">
<title>scale&#45;&gt;causal</title>
<path fill="none" stroke="#4a5568" stroke-dasharray="1,5" d="M659.4,-23.92C684.81,-27.27 718.31,-31.68 743.79,-35.03"/>
</g>
</g>
</svg>
