<?xml version="1.0" encoding="UTF-8" standalone="no"?>
<!DOCTYPE svg PUBLIC "-//W3C//DTD SVG 1.1//EN"
 "http://www.w3.org/Graphics/SVG/1.1/DTD/svg11.dtd">
<!-- Generated by graphviz version 14.1.3 (20260303.0454)
 -->
<!-- Title: Walrus Pages: 1 -->
<svg width="861pt" height="305pt"
 viewBox="0.00 0.00 861.00 305.00" xmlns="http://www.w3.org/2000/svg" xmlns:xlink="http://www.w3.org/1999/xlink">
<g id="graph0" class="graph" transform="scale(1 1) rotate(0) translate(4 301)">
<title>Walrus</title>
<g id="clust1" class="cluster">
<title>cluster_input</title>
<path fill="#1c1007" stroke="#92400e" stroke-width="1.5" stroke-dasharray="5,2" d="M20,-55C20,-55 110.5,-55 110.5,-55 116.5,-55 122.5,-61 122.5,-67 122.5,-67 122.5,-277 122.5,-277 122.5,-283 116.5,-289 110.5,-289 110.5,-289 20,-289 20,-289 14,-289 8,-283 8,-277 8,-277 8,-67 8,-67 8,-61 14,-55 20,-55"/>
<text xml:space="preserve" text-anchor="middle" x="65.25" y="-275.5" font-family="Arial" font-size="10.00" fill="#fbbf24">Multi&#45;Domain Input</text>
</g>
<g id="clust2" class="cluster">
<title>cluster_latent</title>
<path fill="#1a0533" stroke="#6d28d9" stroke-width="1.5" stroke-dasharray="5,2" d="M312.5,-44C312.5,-44 556.25,-44 556.25,-44 562.25,-44 568.25,-50 568.25,-56 568.25,-56 568.25,-116 568.25,-116 568.25,-122 562.25,-128 556.25,-128 556.25,-128 312.5,-128 312.5,-128 306.5,-128 300.5,-122 300.5,-116 300.5,-116 300.5,-56 300.5,-56 300.5,-50 306.5,-44 312.5,-44"/>
<text xml:space="preserve" text-anchor="middle" x="434.38" y="-114.5" font-family="Arial" font-size="10.00" fill="#c4b5fd">Shared Latent Space</text>
</g>
<!-- fluid -->
<g id="node1" class="node">
<title>fluid</title>
<path fill="#92400e" stroke="black" stroke-width="0" d="M95.38,-261C95.38,-261 35.12,-261 35.12,-261 29.12,-261 23.12,-255 23.12,-249 23.12,-249 23.12,-237 23.12,-237 23.12,-231 29.12,-225 35.12,-225 35.12,-225 95.38,-225 95.38,-225 101.38,-225 107.38,-231 107.38,-237 107.38,-237 107.38,-249 107.38,-249 107.38,-255 101.38,-261 95.38,-261"/>
<text xml:space="preserve" text-anchor="middle" x="65.25" y="-246.05" font-family="Arial" font-size="11.00" fill="#fbbf24">Fluid</text>
<text xml:space="preserve" text-anchor="middle" x="65.25" y="-232.55" font-family="Arial" font-size="11.00" fill="#fbbf24">Navier&#45;Stokes</text>
</g>
<!-- patch -->
<g id="node5" class="node">
<title>patch</title>
<path fill="#065f46" stroke="black" stroke-width="0" d="M228.25,-178C228.25,-178 163.5,-178 163.5,-178 157.5,-178 151.5,-172 151.5,-166 151.5,-166 151.5,-154 151.5,-154 151.5,-148 157.5,-142 163.5,-142 163.5,-142 228.25,-142 228.25,-142 234.25,-142 240.25,-148 240.25,-154 240.25,-154 240.25,-166 240.25,-166 240.25,-172 234.25,-178 228.25,-178"/>
<text xml:space="preserve" text-anchor="middle" x="195.88" y="-163.05" font-family="Arial" font-size="11.00" fill="#34d399">Spatiotemporal</text>
<text xml:space="preserve" text-anchor="middle" x="195.88" y="-149.55" font-family="Arial" font-size="11.00" fill="#34d399">Patch Split</text>
</g>
<!-- fluid&#45;&gt;patch -->
<g id="edge1" class="edge">
<title>fluid&#45;&gt;patch</title>
<path fill="none" stroke="#4a5568" d="M106.15,-225.15C111.74,-222.27 117.34,-219.19 122.5,-216 137.29,-206.87 152.67,-195.31 165.42,-185.07"/>
<polygon fill="#4a5568" stroke="#4a5568" points="167.49,-187.89 173.02,-178.85 163.06,-182.47 167.49,-187.89"/>
</g>
<!-- em -->
<g id="node2" class="node">
<title>em</title>
<path fill="#92400e" stroke="black" stroke-width="0" d="M102.5,-207C102.5,-207 28,-207 28,-207 22,-207 16,-201 16,-195 16,-195 16,-183 16,-183 16,-177 22,-171 28,-171 28,-171 102.5,-171 102.5,-171 108.5,-171 114.5,-177 114.5,-183 114.5,-183 114.5,-195 114.5,-195 114.5,-201 108.5,-207 102.5,-207"/>
<text xml:space="preserve" text-anchor="middle" x="65.25" y="-192.05" font-family="Arial" font-size="11.00" fill="#fbbf24">Electromagnetics</text>
<text xml:space="preserve" text-anchor="middle" x="65.25" y="-178.55" font-family="Arial" font-size="11.00" fill="#fbbf24">Maxwell</text>
</g>
<!-- em&#45;&gt;patch -->
<g id="edge2" class="edge">
<title>em&#45;&gt;patch</title>
<path fill="none" stroke="#4a5568" d="M114.15,-178.2C122.78,-176.25 131.84,-174.21 140.65,-172.23"/>
<polygon fill="#4a5568" stroke="#4a5568" points="141.15,-175.7 150.13,-170.09 139.61,-168.87 141.15,-175.7"/>
</g>
<!-- weather -->
<g id="node3" class="node">
<title>weather</title>
<path fill="#92400e" stroke="black" stroke-width="0" d="M96.12,-153C96.12,-153 34.38,-153 34.38,-153 28.38,-153 22.38,-147 22.38,-141 22.38,-141 22.38,-129 22.38,-129 22.38,-123 28.38,-117 34.38,-117 34.38,-117 96.12,-117 96.12,-117 102.12,-117 108.12,-123 108.12,-129 108.12,-129 108.12,-141 108.12,-141 108.12,-147 102.12,-153 96.12,-153"/>
<text xml:space="preserve" text-anchor="middle" x="65.25" y="-138.05" font-family="Arial" font-size="11.00" fill="#fbbf24">Weather</text>
<text xml:space="preserve" text-anchor="middle" x="65.25" y="-124.55" font-family="Arial" font-size="11.00" fill="#fbbf24">Shallow Water</text>
</g>
<!-- weather&#45;&gt;patch -->
<g id="edge3" class="edge">
<title>weather&#45;&gt;patch</title>
<path fill="none" stroke="#4a5568" d="M108.01,-143.12C118.36,-145.13 129.59,-147.31 140.44,-149.42"/>
<polygon fill="#4a5568" stroke="#4a5568" points="139.59,-152.82 150.07,-151.29 140.92,-145.95 139.59,-152.82"/>
</g>
<!-- other -->
<g id="node4" class="node">
<title>other</title>
<path fill="#78350f" stroke="black" stroke-width="0" d="M102.5,-99C102.5,-99 28,-99 28,-99 22,-99 16,-93 16,-87 16,-87 16,-75 16,-75 16,-69 22,-63 28,-63 28,-63 102.5,-63 102.5,-63 108.5,-63 114.5,-69 114.5,-75 114.5,-75 114.5,-87 114.5,-87 114.5,-93 108.5,-99 102.5,-99"/>
<text xml:space="preserve" text-anchor="middle" x="65.25" y="-84.05" font-family="Arial" font-size="11.00" fill="#d97706">16 PDE Systems</text>
<text xml:space="preserve" text-anchor="middle" x="65.25" y="-70.55" font-family="Arial" font-size="11.00" fill="#d97706">...</text>
</g>
<!-- other&#45;&gt;patch -->
<g id="edge4" class="edge">
<title>other&#45;&gt;patch</title>
<path fill="none" stroke="#4a5568" d="M105.75,-98.87C111.45,-101.77 117.19,-104.85 122.5,-108 136.29,-116.18 150.77,-126.25 163.12,-135.35"/>
<polygon fill="#4a5568" stroke="#4a5568" points="160.79,-137.97 170.9,-141.16 164.98,-132.37 160.79,-137.97"/>
</g>
<!-- encoder -->
<g id="node6" class="node">
<title>encoder</title>
<path fill="#1e3a5f" stroke="black" stroke-width="0" d="M383,-184.25C383,-184.25 332.5,-184.25 332.5,-184.25 326.5,-184.25 320.5,-178.25 320.5,-172.25 320.5,-172.25 320.5,-147.75 320.5,-147.75 320.5,-141.75 326.5,-135.75 332.5,-135.75 332.5,-135.75 383,-135.75 383,-135.75 389,-135.75 395,-141.75 395,-147.75 395,-147.75 395,-172.25 395,-172.25 395,-178.25 389,-184.25 383,-184.25"/>
<text xml:space="preserve" text-anchor="middle" x="357.75" y="-169.8" font-family="Arial" font-size="11.00" fill="#60a5fa">Vision</text>
<text xml:space="preserve" text-anchor="middle" x="357.75" y="-156.3" font-family="Arial" font-size="11.00" fill="#60a5fa">Transformer</text>
<text xml:space="preserve" text-anchor="middle" x="357.75" y="-142.8" font-family="Arial" font-size="11.00" fill="#60a5fa">Encoder</text>
</g>
<!-- patch&#45;&gt;encoder -->
<g id="edge5" class="edge">
<title>patch&#45;&gt;encoder</title>
<path fill="none" stroke="#4a5568" d="M240.14,-160C261.54,-160 287.42,-160 309.35,-160"/>
<polygon fill="#4a5568" stroke="#4a5568" points="309.23,-163.5 319.23,-160 309.23,-156.5 309.23,-163.5"/>
<text xml:space="preserve" text-anchor="middle" x="274.38" y="-161.95" font-family="Arial" font-size="9.00" fill="#8090b0">patches</text>
</g>
<!-- latent -->
<g id="node7" class="node">
<title>latent</title>
<path fill="#4c1d95" stroke="black" stroke-width="0" d="M548.25,-100.25C548.25,-100.25 494.75,-100.25 494.75,-100.25 488.75,-100.25 482.75,-94.25 482.75,-88.25 482.75,-88.25 482.75,-63.75 482.75,-63.75 482.75,-57.75 488.75,-51.75 494.75,-51.75 494.75,-51.75 548.25,-51.75 548.25,-51.75 554.25,-51.75 560.25,-57.75 560.25,-63.75 560.25,-63.75 560.25,-88.25 560.25,-88.25 560.25,-94.25 554.25,-100.25 548.25,-100.25"/>
<text xml:space="preserve" text-anchor="middle" x="521.5" y="-85.8" font-family="Arial" font-size="11.00" fill="#c4b5fd">Latent</text>
<text xml:space="preserve" text-anchor="middle" x="521.5" y="-72.3" font-family="Arial" font-size="11.00" fill="#c4b5fd">Transformer</text>
<text xml:space="preserve" text-anchor="middle" x="521.5" y="-58.8" font-family="Arial" font-size="11.00" fill="#c4b5fd">1.3B params</text>
</g>
<!-- encoder&#45;&gt;latent -->
<g id="edge6" class="edge">
<title>encoder&#45;&gt;latent</title>
<path fill="none" stroke="#4a5568" d="M394.65,-141.36C417.72,-129.38 447.94,-113.68 472.99,-100.67"/>
<polygon fill="#4a5568" stroke="#4a5568" points="474.41,-103.88 481.67,-96.16 471.19,-97.67 474.41,-103.88"/>
<text xml:space="preserve" text-anchor="middle" x="444.88" y="-127.47" font-family="Arial" font-size="9.00" fill="#8090b0">cross&#45;attn</text>
</g>
<!-- decoder -->
<g id="node9" class="node">
<title>decoder</title>
<path fill="#1e3a5f" stroke="black" stroke-width="0" d="M690.25,-94C690.25,-94 640.5,-94 640.5,-94 634.5,-94 628.5,-88 628.5,-82 628.5,-82 628.5,-70 628.5,-70 628.5,-64 634.5,-58 640.5,-58 640.5,-58 690.25,-58 690.25,-58 696.25,-58 702.25,-64 702.25,-70 702.25,-70 702.25,-82 702.25,-82 702.25,-88 696.25,-94 690.25,-94"/>
<text xml:space="preserve" text-anchor="middle" x="665.38" y="-79.05" font-family="Arial" font-size="11.00" fill="#60a5fa">Decoder</text>
<text xml:space="preserve" text-anchor="middle" x="665.38" y="-65.55" font-family="Arial" font-size="11.00" fill="#60a5fa">Reconstruct</text>
</g>
<!-- latent&#45;&gt;decoder -->
<g id="edge8" class="edge">
<title>latent&#45;&gt;decoder</title>
<path fill="none" stroke="#4a5568" d="M560.15,-76C577.6,-76 598.54,-76 617.05,-76"/>
<polygon fill="#4a5568" stroke="#4a5568" points="617,-79.5 627,-76 617,-72.5 617,-79.5"/>
<text xml:space="preserve" text-anchor="middle" x="594.38" y="-77.95" font-family="Arial" font-size="9.00" fill="#8090b0">self&#45;attn</text>
</g>
<!-- domain_note -->
<g id="node8" class="node">
<title>domain_note</title>
<polygon fill="#3b0764" stroke="black" stroke-width="0" points="401,-94 308.5,-94 308.5,-58 407,-58 407,-88 401,-94"/>
<polyline fill="none" stroke="black" stroke-width="0" points="401,-94 401,-88"/>
<polyline fill="none" stroke="black" stroke-width="0" points="407,-88 401,-88"/>
<text xml:space="preserve" text-anchor="middle" x="357.75" y="-79.05" font-family="Arial" font-size="11.00" fill="#a78bfa">Domain&#45;Agnostic</text>
<text xml:space="preserve" text-anchor="middle" x="357.75" y="-65.55" font-family="Arial" font-size="11.00" fill="#a78bfa">Representation</text>
</g>
<!-- domain_note&#45;&gt;latent -->
<g id="edge7" class="edge">
<title>domain_note&#45;&gt;latent</title>
<path fill="none" stroke="#6d28d9" stroke-dasharray="1,5" d="M406.84,-76C431.15,-76 460.21,-76 482.86,-76"/>
</g>
<!-- output -->
<g id="node10" class="node">
<title>output</title>
<path fill="#92400e" stroke="black" stroke-width="0" d="M841.25,-94C841.25,-94 790.75,-94 790.75,-94 784.75,-94 778.75,-88 778.75,-82 778.75,-82 778.75,-70 778.75,-70 778.75,-64 784.75,-58 790.75,-58 790.75,-58 841.25,-58 841.25,-58 847.25,-58 853.25,-64 853.25,-70 853.25,-70 853.25,-82 853.25,-82 853.25,-88 847.25,-94 841.25,-94"/>
<text xml:space="preserve" text-anchor="middle" x="816" y="-79.05" font-family="Arial" font-size="11.00" fill="#fbbf24">Output Field</text>
<text xml:space="preserve" text-anchor="middle" x="816" y="-65.55" font-family="Arial" font-size="11.00" fill="#fbbf24">u(x, t+dt)</text>
</g>
<!-- decoder&#45;&gt;output -->
<g id="edge9" class="edge">
<title>decoder&#45;&gt;output</title>
<path fill="none" stroke="#4a5568" d="M701.97,-76C721.61,-76 746.25,-76 767.51,-76"/>
<polygon fill="#4a5568" stroke="#4a5568" points="767.4,-79.5 777.4,-76 767.4,-72.5 767.4,-79.5"/>
<text xml:space="preserve" text-anchor="middle" x="740.5" y="-88.45" font-family="Arial" font-size="9.00" fill="#8090b0">next state</text>
<text xml:space="preserve" text-anchor="middle" x="740.5" y="-77.95" font-family="Arial" font-size="9.00" fill="#8090b0">prediction</text>
</g>
<!-- training -->
<g id="node11" class="node">
<title>training</title>
<polygon fill="#1f2937" stroke="black" stroke-width="0" points="395.75,-36 313.75,-36 313.75,0 401.75,0 401.75,-30 395.75,-36"/>
<polyline fill="none" stroke="black" stroke-width="0" points="395.75,-36 395.75,-30"/>
<polyline fill="none" stroke="black" stroke-width="0" points="401.75,-30 395.75,-30"/>
<text xml:space="preserve" text-anchor="middle" x="357.75" y="-21.05" font-family="Arial" font-size="11.00" fill="#6b7280">96x H100</text>
<text xml:space="preserve" text-anchor="middle" x="357.75" y="-7.55" font-family="Arial" font-size="11.00" fill="#6b7280">15TB The Well</text>
</g>
<!-- training&#45;&gt;latent -->
<g id="edge10" class="edge">
<title>training&#45;&gt;latent</title>
<path fill="none" stroke="#4a5568" stroke-dasharray="1,5" d="M401.67,-33.39C426.94,-42.45 458.6,-53.81 482.89,-62.51"/>
</g>
</g>
</svg>
